<svg xmlns="http://www.w3.org/2000/svg" version="1.1" viewBox="0 0 194 186">


<style>
    svg * {
        transition: fill .1s ease-out, opacity .1s ease-out;
    }
    @media all and (max-width: 250px) {
        #outer { opacity: 0; }
        #outer, #texter { fill: #195463; }
    }
    @media all and (max-width: 230px) {
        #outer {
            opacity: 0;
        }
    }
    @media all and (max-width: 250px) {
        #outer, #texter {
            opacity: 0;
        }
    }
  </style>
<svg version="1.1" id="圖層_1" xmlns="http://www.w3.org/2000/svg" xmlns:xlink="http://www.w3.org/1999/xlink" x="0px" y="0px"
	 viewBox="0 0 326.1 326.1" enable-background="new 0 0 326.1 326.1" xml:space="preserve">
<circle fill="#FFFFFF" stroke="#373679" stroke-width="4.7743" stroke-miterlimit="10" cx="163.1" cy="163.1" r="125"/>
<circle id="outer" fill="none" stroke="#373679" stroke-width="6.1111" stroke-miterlimit="10" cx="163.1" cy="163.1" r="160"/>
<g id="texter">
	<g>
		<path fill="#373679" d="M18.3,149.2l0.8-8l-3.1-0.3c-1-0.1-1.6,0.3-1.7,1.1c0,0.1,0,0.3,0,0.5c0,0.3,0,0.5,0,0.7
			c-0.1,0.5-0.3,0.8-0.8,0.7c-0.5,0-0.7-0.4-0.6-1.2c0-0.2,0.1-0.7,0.3-1.3c0.2-0.6,0.3-1.2,0.3-1.7c0.1-0.8,0.1-1.7,0.1-2.5
			c0-0.5,0-0.8,0-1c0.1-0.7,0.4-1.1,0.9-1c0.5,0,0.7,0.3,0.6,0.8c0,0.1,0,0.3-0.1,0.6c-0.1,0.3-0.1,0.5-0.1,0.6
			c-0.1,0.9,0.4,1.3,1.4,1.4l8.4,0.8c1,0.1,1.6-0.3,1.7-1.1c0-0.1,0-0.3,0-0.6c0-0.3,0-0.5,0-0.6c0.1-0.5,0.3-0.8,0.7-0.7
			c0.5,0,0.7,0.4,0.6,1.2c0,0.2-0.1,0.5-0.2,1c-0.2,0.6-0.3,1.2-0.3,1.9c-0.1,0.9-0.1,1.7-0.1,2.3c0,0.7,0,1.2,0,1.2
			c-0.1,0.7-0.4,1.1-0.9,1c-0.5,0-0.7-0.3-0.6-0.9c0-0.1,0-0.3,0.1-0.6c0.1-0.3,0.1-0.5,0.1-0.6c0.1-0.7-0.3-1.2-1-1.4
			c-0.1,0-0.7-0.1-1.9-0.2l-2.4-0.2l-0.8,8l2.4,0.2c1.2,0.1,1.8,0.2,1.9,0.2c0.8-0.1,1.2-0.4,1.3-1.1c0-0.1,0-0.3,0-0.6
			c0-0.3,0-0.5,0-0.6c0.1-0.5,0.3-0.8,0.7-0.7c0.5,0,0.7,0.4,0.6,1.2c0,0.1-0.1,0.5-0.2,1.1c-0.2,0.8-0.3,1.5-0.4,2.1
			c-0.1,0.7-0.1,1.5-0.1,2.3l0,0.6c0,0.2,0,0.3,0,0.3c-0.1,0.8-0.4,1.1-0.9,1.1c-0.2,0-0.3-0.1-0.5-0.3c-0.1-0.2-0.2-0.4-0.2-0.6
			c0-0.2,0.1-0.4,0.1-0.7c0.1-0.2,0.1-0.4,0.1-0.5c0.1-0.9-0.4-1.3-1.4-1.4l-8.4-0.8c-1-0.1-1.6,0.3-1.7,1.1c0,0.1,0,0.3,0,0.6
			c0,0.3,0,0.5,0,0.7c0,0.2-0.1,0.4-0.3,0.5c-0.2,0.1-0.3,0.2-0.5,0.2c-0.5,0-0.7-0.5-0.6-1.2c0-0.2,0.1-0.5,0.2-0.9
			c0.2-0.6,0.3-1.4,0.4-2.3c0-0.4,0-0.9,0-1.6c0-0.7,0-1.2,0-1.6c0.1-0.7,0.4-1.1,0.9-1c0.2,0,0.3,0.1,0.5,0.3
			c0.1,0.2,0.2,0.4,0.1,0.6c0,0.2-0.1,0.4-0.1,0.7c-0.1,0.3-0.1,0.4-0.1,0.5c-0.1,0.8,0.4,1.3,1.4,1.4L18.3,149.2z"/>
		<path fill="#373679" d="M30.9,125.3c-0.3,1.3-1,2-2.1,2.1c0.8,1.1,1,2.5,0.6,4.3c-0.3,1.3-0.9,2.3-1.6,3c-0.7,0.7-1.6,0.9-2.5,0.6
			c-1.1-0.3-1.8-1.1-2.1-2.3c-0.1-0.5-0.1-0.9-0.1-1.2c0-0.3,0.1-1,0.2-2c0.2-1.4,0.3-2.3,0.1-2.8s-0.5-0.8-1.1-0.9
			c-0.6-0.1-1.1,0-1.5,0.4c-0.4,0.4-0.8,1-1,1.8c-0.2,0.7-0.2,1.5,0,2.2c0.1,0.3,0.2,0.4,0.3,0.5c0.1,0,0.1,0,0.3-0.2
			c0.2-0.2,0.5-0.3,0.8-0.2c0.3,0.1,0.5,0.2,0.6,0.5c0.1,0.3,0.1,0.6,0,1c-0.1,0.4-0.3,0.7-0.6,1c-0.3,0.2-0.6,0.3-1,0.2
			c-0.8-0.2-1.3-0.8-1.6-1.8c-0.3-1-0.3-2.2,0-3.5c0.7-3,2.3-4.2,4.7-3.6l4.1,1c0.7,0.2,1,0.2,1.2,0.2c0.5,0,0.8-0.2,0.9-0.7
			c0.1-0.6-0.2-1-1.1-1.2l-1-0.2c-0.4-0.1-0.6-0.4-0.5-0.9c0.1-0.5,0.5-0.7,1.2-0.6l0.1,0l1.2,0.3C30.9,122.6,31.3,123.6,30.9,125.3
			z M26.2,127l-1.5-0.4c0.2,0.4,0.3,0.8,0.3,1.3s-0.1,1.2-0.2,2.2c-0.3,1.9,0,3,1,3.2c0.5,0.1,1,0,1.4-0.4c0.4-0.4,0.7-0.9,0.9-1.7
			c0.3-1.1,0.2-2-0.1-2.8C27.7,127.7,27.1,127.2,26.2,127z"/>
		<path fill="#373679" d="M23.4,115.1l0.6,0.2c-0.3-0.8-0.5-1.5-0.5-2.1c0-0.6,0.1-1.2,0.4-2c0.6-1.5,1.6-2.4,2.9-2.7
			c-0.3-0.8-0.5-1.4-0.5-2.1c0-0.6,0.2-1.4,0.5-2.2c0.4-0.9,0.8-1.6,1.4-2.2c0.7-0.6,1.4-1,2.1-1c0.5,0,1.2,0.2,2.2,0.5l1.9,0.8
			L36,103c0.5,0.2,0.9,0.3,1,0.4c0.5,0.1,0.8,0,0.9-0.3c0-0.1,0.1-0.3,0.1-0.5c0-0.2,0.1-0.4,0.1-0.5c0.2-0.5,0.5-0.7,0.9-0.6
			c0.5,0.2,0.6,0.6,0.3,1.2c-0.1,0.2-0.3,0.6-0.5,1c-0.2,0.5-0.4,0.8-0.5,1.1c-0.1,0.3-0.2,0.7-0.4,1.2s-0.3,0.9-0.4,1.2
			c-0.3,0.7-0.6,0.9-1.1,0.7c-0.4-0.2-0.5-0.5-0.3-1c0-0.1,0.1-0.2,0.2-0.4c0.1-0.1,0.1-0.2,0.2-0.4c0.1-0.3,0.1-0.5-0.1-0.6
			c-0.2-0.2-0.7-0.4-1.6-0.8l-1.2-0.5l-1.3-0.5c-0.9-0.4-1.6-0.6-2.1-0.6s-0.9,0.2-1.3,0.5c-0.4,0.4-0.7,0.8-1,1.4
			c-0.5,1.1-0.5,2,0,2.7c0.4,0.5,1.2,1.1,2.4,1.6l1.4,0.6c1.2,0.5,2,0.8,2.3,0.8c0.3,0.1,0.6-0.1,0.7-0.4c0-0.1,0.1-0.2,0.1-0.4
			c0-0.2,0.1-0.3,0.1-0.4c0.1-0.2,0.2-0.4,0.4-0.5c0.2-0.1,0.4-0.1,0.5,0c0.4,0.2,0.5,0.6,0.2,1.4c-0.1,0.2-0.3,0.6-0.5,1
			c-0.2,0.4-0.4,0.8-0.5,1c-0.1,0.3-0.3,0.7-0.4,1.1c-0.1,0.4-0.2,0.8-0.3,1.1c-0.3,0.6-0.6,0.9-1.1,0.7c-0.4-0.2-0.5-0.5-0.3-0.9
			c0.1-0.2,0.1-0.3,0.2-0.4c0.1-0.2,0.2-0.3,0.3-0.5c0.2-0.4-0.1-0.7-0.8-1l-0.9-0.4c-0.3-0.1-0.6-0.2-0.8-0.3
			c-0.2-0.1-0.4-0.1-0.4-0.2l-1.6-0.7c-1.1-0.5-2-0.6-2.6-0.4c-0.6,0.2-1.1,0.7-1.5,1.7c-0.4,1-0.4,1.9,0,2.7
			c0.3,0.7,1.1,1.3,2.4,1.8l2.6,1.1c0.5,0.2,0.8,0.3,0.9,0.4c0.5,0.1,0.8,0,0.9-0.2c0-0.1,0.1-0.3,0.1-0.5c0,0,0-0.1,0-0.2
			c0-0.1,0-0.1,0.1-0.2c0.3-0.6,0.6-0.8,1-0.6c0.4,0.2,0.5,0.6,0.2,1.3c-0.1,0.3-0.3,0.6-0.5,1c-0.3,0.5-0.5,0.9-0.6,1.3
			c-0.1,0.2-0.2,0.5-0.4,1c-0.2,0.7-0.4,1.1-0.4,1.2c-0.3,0.6-0.6,0.8-1,0.7c-0.4-0.2-0.5-0.5-0.2-1.1c0,0,0-0.1,0.1-0.1
			c0-0.1,0.1-0.1,0.1-0.1l0.3-0.6c0,0,0,0,0.1-0.1c0.2-0.4,0-0.8-0.7-1.1l-1.1-0.5l-3-1.2c-1.1-0.5-1.8-0.7-2.1-0.7
			c-0.3,0-0.5,0.1-0.6,0.4c0,0.1-0.1,0.3-0.2,0.7c0,0.2-0.1,0.3-0.1,0.4c-0.2,0.6-0.6,0.8-1,0.6c-0.4-0.2-0.5-0.6-0.3-1.2
			c0.1-0.2,0.2-0.4,0.3-0.7c0.1-0.3,0.3-0.5,0.4-0.8c0-0.1,0.1-0.2,0.1-0.3c0-0.1,0.1-0.1,0.1-0.2l0.2-0.6l0-0.1
			C22.8,115,23.1,114.9,23.4,115.1z"/>
		<path fill="#373679" d="M30.4,91.7c0.9,0.7,2.1,1.5,3.4,2.3c-0.2-0.8-0.3-1.4-0.2-2c0.1-0.6,0.3-1.3,0.8-2c0.9-1.4,2-2.3,3.3-2.7
			c1.4-0.4,2.7-0.1,4.1,0.7c1.5,0.9,2.5,2.1,2.9,3.5c0.4,1.4,0.1,2.9-0.8,4.5c-0.9,1.5-2,2.3-3.3,2.4c0.4,0.2,0.6,0.2,0.6,0.3
			c0.4,0.3,0.5,0.6,0.2,1.1c-0.3,0.5-0.8,0.6-1.4,0.2c-0.2-0.1-0.3-0.2-0.4-0.2c-0.3-0.2-0.6-0.3-0.9-0.5l-1.3-0.9l-1.8-1.1
			l-4.8-2.9c-0.5-0.2-0.8-0.4-1-0.4c-0.2,0-0.4,0.1-0.5,0.3c0,0-0.1,0.2-0.3,0.6c-0.1,0.2-0.1,0.3-0.2,0.4c-0.3,0.5-0.6,0.6-1,0.4
			c-0.4-0.2-0.4-0.6-0.1-1.2c0.1-0.2,0.2-0.3,0.3-0.4l0.4-0.5c0.2-0.2,0.3-0.4,0.4-0.5c0.1-0.2,0.2-0.4,0.3-0.7
			c0.1-0.3,0.2-0.5,0.3-0.7c0.2-0.3,0.5-0.4,0.8-0.2L30.4,91.7z M35.6,94.9c0.3,0.3,0.8,0.7,1.5,1.1c1.2,0.7,2.1,1.1,2.7,1.1
			c1.1,0.1,2.1-0.5,2.8-1.8c0.6-1,0.7-2,0.4-3c-0.3-1-1-1.8-2.1-2.5c-1.1-0.7-2.2-0.9-3.2-0.7s-1.8,0.8-2.3,1.7
			c-0.4,0.7-0.6,1.4-0.6,2.2C35,93.8,35.2,94.4,35.6,94.9z"/>
		<path fill="#373679" d="M53.1,81l-0.5-0.4c0.3,1.3-0.1,2.7-1.1,4.1c-1.2,1.6-2.4,2.4-3.7,2.4c-0.6,0-1.1-0.2-1.6-0.5
			c-0.2-0.2-0.7-0.5-1.5-1.1l-1.4-1c-1.5-1.2-2.5-1.5-2.7-1.1c-0.1,0.1-0.1,0.2-0.3,0.4c-0.1,0.2-0.2,0.3-0.3,0.4
			c-0.4,0.5-0.7,0.6-1.1,0.3c-0.4-0.3-0.3-0.7,0.1-1.3c0.1-0.1,0.3-0.3,0.5-0.6c0.2-0.2,0.4-0.4,0.5-0.6c0.1-0.1,0.2-0.3,0.4-0.7
			c0.1-0.2,0.2-0.3,0.2-0.4c0.3-0.4,0.7-0.5,1.1-0.1l0.4,0.3l1.1,0.8l1.2,1l1.1,0.8c1,0.7,1.7,1.2,2.3,1.3c0.9,0.2,1.8-0.3,2.7-1.4
			c0.4-0.6,0.7-1.2,0.8-1.8c0.1-0.6,0.1-1.1-0.2-1.6c-0.3-0.5-1-1.3-2.2-2.2L48,77.4c-0.7-0.5-1-0.8-1.1-0.8c-0.6-0.3-1-0.4-1.2-0.1
			c-0.1,0.1-0.2,0.3-0.3,0.4l-0.2,0.2c-0.4,0.5-0.7,0.6-1,0.3c-0.4-0.3-0.4-0.7,0-1.2c0.1-0.1,0.2-0.3,0.4-0.5s0.4-0.4,0.4-0.5
			c0.1-0.1,0.2-0.3,0.3-0.5c0.1-0.2,0.2-0.4,0.3-0.5c0.3-0.4,0.6-0.5,1-0.2c0.2,0.1,0.3,0.2,0.3,0.3c0.4,0.4,1,0.9,1.8,1.5l2.6,1.9
			c0.7,0.5,1.1,0.8,1.2,0.8c0.6,0.4,1.1,0.4,1.3,0.1c0.1-0.1,0.2-0.2,0.3-0.4c0.1-0.2,0.2-0.3,0.3-0.4c0.3-0.5,0.7-0.5,1.1-0.3
			c0.4,0.3,0.4,0.7-0.1,1.3c-0.1,0.1-0.2,0.3-0.4,0.5c-0.3,0.3-0.5,0.5-0.5,0.6c0,0-0.1,0.2-0.3,0.4c-0.1,0.2-0.2,0.3-0.3,0.5
			C53.8,81.2,53.5,81.2,53.1,81z"/>
		<path fill="#373679" d="M51.9,67.9l0.4,0.4c-0.2-1.3,0.2-2.5,1.2-3.6c0.8-0.9,1.6-1.4,2.5-1.5c0.9-0.2,1.7,0,2.3,0.6
			c0.5,0.4,0.7,0.9,0.7,1.4s-0.2,1-0.6,1.5c-0.3,0.3-0.6,0.5-0.9,0.5c-0.3,0.1-0.6,0-0.8-0.2c-0.2-0.2-0.2-0.4-0.2-0.6
			c0-0.3,0.1-0.5,0.3-0.7c0,0,0.1-0.1,0.3-0.2c-0.1-0.2-0.1-0.3-0.2-0.4c-0.3-0.3-0.7-0.3-1.2-0.2s-1,0.4-1.4,0.9
			c-0.9,1-1.1,1.9-0.7,2.9c0.3,0.6,0.8,1.3,1.7,2.1l1,0.9c0.7,0.6,1.1,1,1.2,1c0.6,0.5,1.1,0.6,1.4,0.2c0.1-0.2,0.3-0.3,0.4-0.5
			c0.1-0.2,0.2-0.3,0.3-0.4c0.4-0.4,0.7-0.4,1-0.1c0.4,0.3,0.3,0.7-0.2,1.2l-0.1,0.1c-0.2,0.2-0.4,0.4-0.8,0.8
			c-0.4,0.3-0.7,0.6-0.8,0.8c-0.5,0.5-0.8,0.9-1,1.2L57,77.2c-0.5,0.5-0.9,0.6-1.2,0.3c-0.3-0.3-0.3-0.7,0.2-1.2
			c0.1-0.1,0.2-0.2,0.3-0.3l0.3-0.2c0.1-0.1,0.2-0.2,0.3-0.2c0.3-0.3,0.2-0.7-0.2-1.2l-0.8-0.7l-3.6-3.2c-0.6-0.5-1.1-0.6-1.4-0.3
			c-0.1,0.1-0.2,0.2-0.3,0.5s-0.2,0.4-0.3,0.5c-0.4,0.4-0.7,0.5-1.1,0.2c-0.4-0.3-0.3-0.8,0.2-1.3c0.1-0.1,0.3-0.3,0.5-0.5
			c0.3-0.2,0.4-0.4,0.5-0.5c0.1-0.1,0.2-0.3,0.4-0.5c0.1-0.1,0.2-0.3,0.3-0.4C51.3,67.7,51.6,67.7,51.9,67.9z"/>
		<path fill="#373679" d="M61.6,56.8c0.3-0.3,0.7-0.6,1.2-0.9c-0.9-1.1-0.6-2.2,0.7-3.5c0.6-0.5,1.2-0.8,1.8-0.9
			c0.6-0.1,1.1,0,1.4,0.4c0.2,0.2,0.3,0.5,0.3,0.9c0,0.4-0.2,0.6-0.4,0.9c-0.2,0.2-0.4,0.3-0.7,0.3s-0.5,0-0.6-0.2
			c-0.2-0.2-0.2-0.5-0.1-0.9c-0.4,0-0.7,0.1-1,0.4c-0.7,0.6-0.7,1.2-0.1,1.9c1.4-0.3,2.5-0.1,3.4,0.8c0.7,0.7,0.9,1.6,0.7,2.7
			c-0.2,1.1-0.8,2-1.8,2.9c-0.7,0.6-1.5,1.1-2.5,1.5c-0.3,0.1-0.5,0.2-0.6,0.4c-0.2,0.2-0.3,0.4-0.3,0.6s0.1,0.5,0.2,0.6
			c0.5,0.5,1.4,0.2,2.7-1l0.1-0.1c0.1-0.1,0.2-0.2,0.3-0.3s0.2-0.2,0.2-0.2c1.2-1.1,2.2-1.9,3.1-2.3c0.8-0.4,1.6-0.7,2.4-0.7
			c0.7,0,1.3,0.2,1.7,0.7c0.7,0.8,0.8,1.7,0.4,2.9c-0.4,1.2-1.4,2.5-2.8,3.8c-1.4,1.3-2.7,2.1-3.9,2.4c-1.2,0.3-2.1,0.1-2.8-0.6
			c-0.8-0.8-0.7-1.9,0.1-3.3c-1.3,0.6-2.3,0.6-2.9-0.1c-0.7-0.7-0.6-1.7,0.2-2.9c-0.7-0.1-1.2-0.3-1.6-0.8c-0.6-0.7-0.9-1.6-0.6-2.6
			C60,58.7,60.6,57.7,61.6,56.8z M62.6,57.8c-0.5,0.5-0.9,1.1-1,1.7c-0.1,0.6,0,1.1,0.3,1.6l0.1,0.1c0.4,0.5,0.9,0.7,1.6,0.6
			c0.6-0.1,1.2-0.4,1.8-0.9c0.6-0.6,1-1.2,1.1-1.8s0-1.2-0.4-1.6c-0.4-0.4-0.9-0.6-1.6-0.6C63.8,57,63.2,57.3,62.6,57.8z M68.1,63.8
			c-1,0.9-1.7,1.7-2,2.5c-0.3,0.8-0.3,1.4,0.1,1.8s1,0.5,1.8,0.2s1.6-0.8,2.6-1.7c1-0.9,1.7-1.7,2-2.5c0.3-0.8,0.3-1.4,0-1.8
			c-0.4-0.4-1-0.5-1.7-0.3C70,62.3,69.1,62.9,68.1,63.8z"/>
		<path fill="#373679" d="M79.5,48.3c0.3,0.4,0.5,0.7,0.5,0.9c0,0.1-0.2,0.3-0.5,0.6l-6.4,4.9c-0.2,0.1-0.3,0.2-0.3,0.3
			c0,0.1,0,0.2,0.1,0.3c0.6,0.8,1.5,1.3,2.5,1.4s2-0.2,2.9-0.9c0.6-0.4,1-1,1.3-1.6c0.3-0.6,0.3-1.2,0.2-1.7l-0.2-0.6
			c-0.1-0.3,0-0.6,0.4-0.9c0.5-0.4,0.9-0.4,1.2,0.1c0.6,0.7,0.6,1.7,0.2,2.9c-0.5,1.2-1.2,2.3-2.4,3.1c-1.4,1.1-2.8,1.5-4.2,1.4
			s-2.6-0.9-3.7-2.2c-1-1.4-1.4-2.8-1.2-4.3s1.1-2.8,2.5-3.9c1.3-1,2.6-1.4,3.9-1.3C77.6,46.7,78.7,47.2,79.5,48.3z M71.9,53.4
			c0.1,0.2,0.3,0.1,0.6-0.1l4.8-3.7c0.3-0.2,0.4-0.4,0.2-0.6c-0.5-0.6-1.1-0.9-2-0.9c-0.9,0-1.7,0.2-2.4,0.8
			c-0.7,0.6-1.3,1.3-1.5,2.2C71.4,52.1,71.5,52.9,71.9,53.4z"/>
		<path fill="#373679" d="M82.4,41.9l0.3,0.5c0.2-1.3,0.9-2.4,2.1-3.2c1-0.6,1.9-0.9,2.9-0.8c0.9,0.1,1.6,0.5,2.1,1.2
			c0.3,0.5,0.4,1,0.3,1.6c-0.1,0.5-0.4,0.9-0.9,1.3c-0.3,0.2-0.7,0.3-1,0.3c-0.3,0-0.6-0.2-0.7-0.4c-0.1-0.2-0.1-0.4-0.1-0.7
			c0.1-0.3,0.2-0.5,0.5-0.6c0,0,0.1-0.1,0.3-0.1c0-0.2,0-0.4-0.1-0.5C87.9,40.2,87.5,40,87,40c-0.5,0-1,0.2-1.6,0.5
			c-1.1,0.7-1.6,1.6-1.4,2.6c0.1,0.7,0.5,1.5,1.1,2.5l0.7,1.2c0.5,0.8,0.8,1.2,0.9,1.3c0.5,0.6,0.9,0.8,1.3,0.6
			c0.2-0.1,0.4-0.3,0.5-0.4c0.1-0.1,0.3-0.2,0.4-0.3c0.5-0.3,0.8-0.2,1,0.1c0.3,0.4,0.1,0.8-0.5,1.2l-0.1,0.1
			c-0.2,0.1-0.5,0.3-1,0.5s-0.8,0.4-1,0.5c-0.6,0.4-1,0.7-1.3,0.9L85,52.2c-0.6,0.4-1,0.3-1.3-0.1c-0.2-0.4-0.1-0.7,0.5-1.1
			c0.1-0.1,0.3-0.2,0.3-0.2l0.4-0.2c0.2-0.1,0.3-0.1,0.3-0.2c0.4-0.2,0.4-0.6,0.1-1.2l-0.6-0.9l-2.6-4c-0.5-0.7-0.9-0.9-1.3-0.6
			c-0.1,0.1-0.3,0.2-0.4,0.3c-0.2,0.2-0.3,0.3-0.4,0.4c-0.5,0.3-0.8,0.3-1.1-0.1c-0.3-0.4-0.1-0.8,0.5-1.2c0.1-0.1,0.4-0.2,0.7-0.4
			c0.3-0.1,0.5-0.3,0.7-0.4c0.1-0.1,0.3-0.2,0.5-0.4c0.1-0.1,0.2-0.2,0.4-0.3C81.9,41.6,82.2,41.6,82.4,41.9z"/>
		<path fill="#373679" d="M104,34.7c-0.4,0.2-0.9,0.2-1.3,0.1c-0.4-0.1-0.7-0.4-0.9-0.7c-0.2-0.4-0.1-0.7,0-1.1
			c0.2-0.4,0.5-0.7,0.9-0.9c0.4-0.2,0.9-0.2,1.3-0.1c0.4,0.1,0.7,0.4,0.9,0.7c0.2,0.4,0.1,0.7,0,1.1C104.8,34.2,104.5,34.5,104,34.7
			z"/>
		<path fill="#373679" d="M122.9,18.8c1.6-0.4,3-0.4,4.2,0.2l-0.1-0.3c-0.1-0.5,0-0.9,0.5-1c0.6-0.2,0.9,0.1,1.1,0.6l0,0.1
			c0,0,0,0.2,0.1,0.6s0.2,0.9,0.3,1.4c0,0.1,0.1,0.3,0.2,0.6l0.3,0.8c0,0.1,0.1,0.2,0.1,0.3c0.2,0.6,0,1.1-0.6,1.2
			c-0.6,0.2-1,0-1.2-0.6l0-0.1l-0.1-0.6c0-0.2-0.1-0.3-0.1-0.5c-0.2-0.8-0.7-1.4-1.5-1.6c-0.8-0.3-1.7-0.3-2.9,0.1
			c-1.1,0.3-1.8,0.7-2.3,1.3c-0.5,0.6-0.7,1.3-0.5,2c0.2,0.9,0.9,1.4,1.9,1.5c0.6,0.1,1.5,0,2.9-0.2c2-0.3,3.4-0.3,4.2,0
			c1.2,0.4,2,1.2,2.4,2.4c0.3,1.3,0.1,2.5-0.8,3.6c-0.9,1.1-2.2,1.9-3.9,2.4c-1.8,0.5-3.5,0.4-5-0.2c0,0.1,0,0.1,0,0.2
			c0,0.1,0,0.1,0,0.1c0.1,0.2,0.2,0.3,0.2,0.4c0.1,0.5-0.1,0.8-0.7,1c-0.6,0.2-1.1,0-1.2-0.6c0-0.1,0-0.1,0-0.2l-0.2-1.1
			c-0.1-0.5-0.2-0.9-0.2-1c-0.1-0.3-0.2-0.7-0.5-1.2c-0.2-0.5-0.4-0.9-0.5-1.2c-0.2-0.6,0.1-1,0.7-1.2c0.6-0.2,1,0,1.2,0.7l0.1,0.4
			c0,0.1,0.1,0.3,0.1,0.5c0.3,1,0.9,1.7,1.8,2.1s2.1,0.4,3.4,0c1.2-0.3,2.1-0.8,2.7-1.5c0.6-0.7,0.8-1.4,0.5-2.3
			c-0.4-1.3-1.5-1.8-3.6-1.6l-1.4,0.2c-1.4,0.2-2.6,0.2-3.4,0.2c-0.8-0.1-1.4-0.3-2-0.8s-0.9-1-1.1-1.7c-0.3-1.2-0.1-2.3,0.8-3.3
			C120,20,121.2,19.3,122.9,18.8z"/>
		<path fill="#373679" d="M145.6,29.2c-1.4,0.2-2.3-0.1-2.7-1.1c-0.7,1.2-1.9,1.9-3.7,2.2c-1.3,0.2-2.5,0.1-3.4-0.3
			c-0.9-0.4-1.4-1.1-1.6-2c-0.2-1.1,0.3-2.1,1.4-2.8c0.4-0.3,0.8-0.5,1.1-0.6c0.3-0.1,1-0.3,1.9-0.6c1.4-0.3,2.3-0.7,2.6-1
			s0.5-0.7,0.4-1.3c-0.1-0.6-0.4-1-0.9-1.2c-0.5-0.2-1.2-0.3-2.1-0.2c-0.7,0.1-1.4,0.4-2,0.9c-0.2,0.2-0.3,0.3-0.3,0.5
			c0,0.1,0.1,0.1,0.3,0.2c0.3,0.1,0.4,0.3,0.5,0.7c0,0.3,0,0.5-0.3,0.7c-0.2,0.2-0.5,0.4-0.9,0.4c-0.4,0.1-0.8,0-1.1-0.2
			c-0.3-0.2-0.5-0.5-0.6-0.8c-0.1-0.8,0.2-1.5,1.1-2.2c0.8-0.7,1.9-1.2,3.2-1.4c3-0.5,4.7,0.5,5.1,2.9l0.7,4.2
			c0.1,0.7,0.2,1.1,0.2,1.2c0.2,0.5,0.5,0.7,1,0.6c0.6-0.1,0.8-0.6,0.7-1.5l-0.2-1c-0.1-0.4,0.1-0.7,0.7-0.8c0.5-0.1,0.9,0.2,1,0.9
			l0,0.1l0.2,1.2C148,28.2,147.3,29,145.6,29.2z M142.2,25.6l-0.2-1.5c-0.3,0.3-0.7,0.6-1.1,0.8c-0.4,0.2-1.1,0.4-2.1,0.6
			c-1.9,0.5-2.7,1.2-2.5,2.2c0.1,0.5,0.4,0.9,0.9,1.1c0.5,0.2,1.1,0.3,1.9,0.2c1.1-0.2,1.9-0.6,2.5-1.2S142.3,26.4,142.2,25.6z"/>
		<path fill="#373679" d="M151.9,18.5l0,0.6c1-1.1,2.3-1.7,4-1.8c0.9,0,1.8,0.1,2.6,0.5s1.4,0.8,1.7,1.4c0.3,0.5,0.4,1.1,0.4,1.9
			l0.2,4c0,0.6,0.1,1,0.1,1.1c0.1,0.5,0.3,0.7,0.7,0.7c0.2,0,0.3,0,0.6-0.1c0.2,0,0.4-0.1,0.5-0.1c0.2,0,0.4,0,0.6,0.2
			c0.2,0.1,0.3,0.3,0.3,0.5c0,0.2-0.1,0.4-0.3,0.5s-0.4,0.2-0.7,0.2c-0.2,0-0.6,0-1.2,0s-1,0-1.5,0c-0.4,0-0.8,0-1.1,0.1
			c-0.8,0.1-1.3,0.2-1.3,0.2c-0.7,0-1-0.2-1-0.7c0-0.4,0.3-0.7,0.8-0.7c0.1,0,0.3,0,0.5,0c0.3,0,0.5,0.1,0.6,0.1
			c0.4,0,0.6-0.4,0.6-1.2l0-1.1l-0.1-1.3l-0.1-1.6c0-0.7-0.1-1.3-0.2-1.5c-0.2-0.5-0.5-0.9-1-1.2c-0.6-0.3-1.2-0.4-1.9-0.4
			c-1.3,0.1-2.3,0.5-2.8,1.3c-0.4,0.6-0.5,1.5-0.5,2.8l0.1,2.8c0,0.6,0.1,1,0.2,1.3c0.1,0.2,0.3,0.3,0.6,0.3c0.1,0,0.3,0,0.5-0.1
			s0.4-0.1,0.6-0.1c0.5,0,0.8,0.2,0.8,0.7c0,0.5-0.3,0.7-1,0.7c-0.1,0-0.6,0-1.3-0.1c-0.4,0-0.8,0-1.2,0c-0.4,0-0.8,0.1-1.4,0.1
			c-0.7,0.1-1.2,0.2-1.3,0.2c-0.7,0-1.1-0.2-1.1-0.7c0-0.4,0.2-0.7,0.8-0.7c0.1,0,0.2,0,0.5,0c0.2,0,0.5,0,0.7,0
			c0.5,0,0.8-0.4,0.7-1.3l-0.1-2.3l-0.1-2.5l0-0.7c-0.1-0.5-0.1-0.8-0.3-1c-0.1-0.2-0.3-0.2-0.6-0.2c-0.1,0-0.3,0-0.5,0.1
			s-0.4,0.1-0.5,0.1c-0.6,0-0.9-0.2-1-0.6c0-0.5,0.3-0.7,1.1-0.7c0.1,0,0.2,0,0.3,0l0.9,0c0.3,0,0.5,0,0.7-0.1
			c0.4-0.1,0.7-0.1,0.7-0.1C151.7,17.9,151.9,18.1,151.9,18.5z"/>
		<path fill="#373679" d="M170.5,17.5c1.7,0.1,2.9,0.7,3.6,1.9l0.1-2.1c0-0.6,0-0.9,0-1c-0.1-0.4-0.3-0.7-0.7-0.7
			c-0.1,0-0.3,0-0.6,0c-0.2,0-0.4,0-0.6,0c-0.6,0-0.9-0.3-0.9-0.7c0-0.5,0.5-0.7,1.3-0.6c0.1,0,0.4,0,0.7,0.1
			c0.5,0.1,0.8,0.1,0.8,0.1c0.2,0,0.4,0,0.7,0c0.3,0,0.5,0,0.7,0c0.5,0,0.7,0.3,0.6,0.9l0,0.2c0,0-0.1,0.4-0.1,1.1
			c0,0.1-0.1,0.6-0.2,1.6c-0.1,0.7-0.1,1.2-0.2,1.6l-0.1,2.1l-0.2,3.5c0,0.9,0,1.5,0,1.7s0.3,0.4,0.6,0.4c0.2,0,0.4,0,0.5,0
			c0.3,0,0.5,0,0.6,0c0.6,0,0.9,0.3,0.9,0.8c0,0.5-0.4,0.7-1.2,0.6c-0.2,0-0.4,0-0.8-0.1s-0.6-0.1-0.8-0.1c-0.1,0-0.2,0-0.6,0
			c-0.2,0-0.4,0-0.5,0c-0.5,0-0.7-0.3-0.6-0.8l0-0.1l0-0.4c-1,0.9-2.3,1.3-4,1.2c-1.7-0.1-3-0.7-4-1.8c-1-1.1-1.4-2.5-1.3-4.2
			c0.1-1.7,0.7-3,1.8-4C167.4,17.8,168.8,17.4,170.5,17.5z M173.6,25.2c0.1-0.5,0.2-1,0.2-1.8c0.1-0.9,0.1-1.6,0-1.9
			c-0.1-0.7-0.4-1.3-1-1.7c-0.6-0.5-1.4-0.8-2.3-0.9c-1.2-0.1-2.1,0.2-2.8,0.9c-0.7,0.7-1.1,1.7-1.2,3c-0.1,1.3,0.2,2.4,0.8,3.2
			c0.6,0.8,1.6,1.3,2.8,1.3c0.9,0.1,1.7-0.1,2.3-0.5C173.1,26.4,173.5,25.9,173.6,25.2z"/>
		<path fill="#373679" d="M183.7,22.1l0.6,6.6l3.4-6.9c0.4-0.7,0.7-1.2,1-1.4c0.3-0.2,0.7-0.3,1.2-0.2c0.5,0.1,0.9,0.3,1,0.6
			s0.3,0.9,0.4,1.7l0.4,7.6l3.1-5.9c0.2-0.4,0.3-0.7,0.4-1l0,0c0.1-0.4-0.1-0.6-0.5-0.7c-0.1,0-0.4,0-0.7-0.1c-0.3,0-0.5,0-0.7-0.1
			c-0.6-0.1-0.9-0.4-0.8-0.9c0.1-0.5,0.5-0.6,1.4-0.5c0.1,0,0.2,0.1,0.4,0.1l1,0.3c0.3,0.1,0.7,0.2,1.2,0.3c0.4,0.1,0.9,0.1,1.3,0.2
			l0.8,0.1c0.1,0,0.2,0,0.3,0c0.7,0.1,1,0.4,0.9,0.9c-0.1,0.5-0.4,0.6-1,0.5c-0.2,0-0.3-0.1-0.4-0.2c-0.3-0.1-0.4-0.2-0.4-0.2
			c-0.4-0.1-1.1,0.6-1.8,2l-2.7,5c-0.3,0.6-0.6,1-1,1.2c-0.3,0.2-0.7,0.3-1.2,0.2c-0.9-0.2-1.3-0.9-1.4-2.1l-0.4-7.7l-3.3,6.8
			c-0.3,0.7-0.6,1.1-1,1.3c-0.3,0.2-0.7,0.3-1.2,0.2c-0.8-0.2-1.2-0.7-1.3-1.6l-0.9-7.9c-0.1-0.5-0.2-0.7-0.6-0.8
			c-0.1,0-0.3,0-0.5,0c-0.3,0-0.5,0-0.6,0c-0.5-0.1-0.8-0.4-0.7-0.8c0.1-0.5,0.5-0.7,1.3-0.5c0.1,0,0.2,0.1,0.3,0.1l1,0.3
			c0.2,0.1,0.5,0.2,0.9,0.2c0.5,0.1,1,0.2,1.6,0.2c0.8,0.1,1.2,0.1,1.3,0.1c0.7,0.1,1,0.5,0.9,0.9c-0.1,0.5-0.4,0.6-1.1,0.5
			c-0.1,0-0.3-0.1-0.6-0.2c-0.2-0.1-0.4-0.2-0.6-0.2c-0.4-0.1-0.7,0.1-0.8,0.5C183.7,21.4,183.7,21.7,183.7,22.1z"/>
		<path fill="#373679" d="M203.8,28.5l-0.8,2.6c-0.2,0.7-0.3,1.1-0.3,1.2c-0.1,0.6,0,1,0.4,1.1c0.1,0,0.3,0.1,0.6,0.1
			c0.1,0,0.2,0,0.4,0.1c0.6,0.2,0.8,0.5,0.7,0.9c-0.1,0.2-0.2,0.3-0.4,0.4c-0.2,0.1-0.5,0.1-0.8,0c-0.3-0.1-0.6-0.2-1.1-0.4
			c-0.5-0.2-0.9-0.4-1.1-0.4c-0.4-0.1-0.9-0.2-1.4-0.3c-0.6-0.1-1.1-0.2-1.3-0.3c-0.6-0.2-0.9-0.5-0.8-1c0.1-0.4,0.5-0.6,1-0.4
			c0.1,0,0.3,0.1,0.6,0.2c0.2,0.1,0.4,0.2,0.6,0.2c0.4,0.1,0.8-0.2,1.1-1.1c0-0.1,0.2-0.6,0.5-1.8l0.5-1.6c0.3-1.1,0.5-1.7,0.5-1.8
			c0.2-0.9,0.1-1.4-0.3-1.5c-0.1,0-0.3-0.1-0.6-0.1c-0.2,0-0.4-0.1-0.5-0.1c-0.6-0.2-0.8-0.5-0.7-0.9c0.1-0.5,0.6-0.6,1.3-0.4
			c0.3,0.1,0.5,0.2,0.6,0.2c0.5,0.2,0.8,0.3,1,0.4c0.1,0,0.3,0.1,0.6,0.1c0.3,0,0.5,0.1,0.6,0.1c0.5,0.1,0.6,0.5,0.5,1
			c0,0.1,0,0.1-0.1,0.2c0,0.1-0.1,0.2-0.1,0.2c0,0.1-0.2,0.5-0.4,1.2C204.2,27.3,204,27.9,203.8,28.5z M204.2,22.8
			c-0.4-0.1-0.7-0.3-0.8-0.6c-0.2-0.3-0.2-0.6-0.2-0.9c0.1-0.3,0.3-0.5,0.6-0.7c0.3-0.1,0.7-0.1,1,0c0.4,0.1,0.7,0.3,0.9,0.6
			c0.2,0.3,0.3,0.6,0.2,0.9c-0.1,0.3-0.3,0.5-0.6,0.7C204.9,22.9,204.5,22.9,204.2,22.8z"/>
		<path fill="#373679" d="M214.7,31.5c0.2-0.5,0.7-0.7,1.5-0.4c0.1-0.5,0-0.9-0.4-1.4c-0.3-0.4-0.9-0.8-1.6-1.1
			c-1.1-0.4-2.1-0.4-3,0.1c-0.9,0.5-1.6,1.3-2.1,2.5c-0.5,1.2-0.5,2.3-0.2,3.3c0.3,0.9,1.1,1.6,2.2,2c0.7,0.3,1.4,0.3,2,0.2
			s1.2-0.4,1.6-0.9c0.3-0.4,0.5-0.6,0.6-0.7c0.3-0.2,0.6-0.2,0.9-0.1c0.3,0.1,0.5,0.3,0.6,0.5c0.1,0.2,0.1,0.4,0,0.6
			c-0.1,0.3-0.4,0.7-0.8,1c-0.4,0.4-0.9,0.6-1.3,0.8c-1.2,0.5-2.6,0.4-4.1-0.2c-1.6-0.6-2.7-1.6-3.3-2.9c-0.6-1.3-0.6-2.7,0-4.3
			c0.6-1.6,1.6-2.7,3-3.3c1.4-0.6,2.9-0.5,4.6,0.1c1.3,0.5,2.2,1.2,2.8,2.1c0.6,0.9,0.7,1.8,0.4,2.6c-0.2,0.5-0.5,0.8-0.9,1
			s-0.9,0.2-1.4,0c-0.4-0.2-0.7-0.4-0.9-0.7C214.6,32.1,214.6,31.8,214.7,31.5z"/>
		<path fill="#373679" d="M226.4,29.4l-2,3.6c0.8-0.2,1.6-0.2,2.1-0.1c0.6,0.1,1.2,0.3,1.9,0.6c1.3,0.7,2.2,1.5,2.6,2.5
			c0.5,1,0.4,2-0.1,3l-1.6,3.1c-0.4,0.7-0.6,1.1-0.6,1.2c-0.3,0.7-0.2,1.1,0.1,1.2c0.1,0.1,0.3,0.1,0.6,0.2c0.1,0,0.2,0.1,0.4,0.2
			c0.6,0.3,0.7,0.6,0.5,1.1c-0.2,0.4-0.7,0.5-1.4,0.1c-0.2-0.1-0.5-0.3-0.8-0.5c-0.6-0.4-1.1-0.7-1.5-0.9c-0.4-0.2-0.7-0.3-0.9-0.4
			c-0.7-0.2-1.1-0.4-1.2-0.5c-0.3-0.1-0.5-0.3-0.6-0.5s-0.1-0.4,0-0.6c0.1-0.2,0.2-0.3,0.4-0.3s0.4,0,0.6,0.1
			c0.2,0.1,0.3,0.2,0.5,0.4c0.1,0.1,0.2,0.2,0.4,0.3c0.4,0.2,0.9-0.1,1.3-0.9c0.1-0.1,0.2-0.4,0.5-0.9l0.4-0.8l0.5-1
			c0.7-1.3,0.9-2.2,0.9-2.8c-0.1-0.9-0.7-1.6-1.8-2.1c-1.2-0.6-2.2-0.7-3.1-0.3c-0.6,0.3-1.2,0.9-1.7,1.9l-0.7,1.3
			c0,0.1-0.1,0.2-0.3,0.3c-0.1,0.2-0.1,0.3-0.2,0.4c-0.4,0.7-0.6,1.1-0.6,1.2c-0.2,0.7-0.2,1.1,0.2,1.3c0.1,0.1,0.3,0.1,0.6,0.2
			s0.4,0.1,0.5,0.2c0.5,0.3,0.6,0.6,0.4,1c-0.2,0.5-0.7,0.5-1.3,0.2c-0.2-0.1-0.5-0.3-0.9-0.5c-0.5-0.3-1-0.6-1.4-0.8
			c-0.3-0.1-0.6-0.3-1.1-0.5c-0.6-0.3-1-0.4-1.2-0.5c-0.6-0.3-0.8-0.7-0.6-1.2c0.2-0.4,0.6-0.4,1.2-0.1c0.2,0.1,0.3,0.2,0.4,0.3
			c0.2,0.2,0.4,0.3,0.5,0.4c0.2,0.1,0.5,0,0.8-0.3c0.3-0.3,0.7-1.1,1.3-2.3l1.7-3.4c1-1.9,1.5-3.1,1.7-3.6s0.1-0.9-0.2-1.1
			c-0.1-0.1-0.3-0.1-0.5-0.2c-0.2-0.1-0.4-0.1-0.5-0.2c-0.5-0.3-0.7-0.6-0.5-1c0.1-0.2,0.3-0.3,0.5-0.3c0.2,0,0.5,0,0.7,0.1
			c0.1,0,0.3,0.2,0.7,0.4c0.3,0.2,0.6,0.3,0.9,0.5c0.1,0.1,0.3,0.1,0.6,0.2c0.3,0.1,0.4,0.2,0.5,0.2C226.5,28.7,226.6,29,226.4,29.4
			L226.4,29.4z"/>
		<path fill="#373679" d="M245,49.5c-0.4-0.3-0.6-0.6-0.7-1.1c-0.1-0.4,0-0.8,0.2-1.1c0.2-0.3,0.6-0.5,1-0.5c0.4,0,0.9,0.1,1.2,0.4
			c0.4,0.3,0.6,0.6,0.7,1.1c0.1,0.4,0,0.8-0.2,1.1c-0.2,0.3-0.6,0.5-1,0.5C245.8,49.9,245.4,49.8,245,49.5z"/>
		<path fill="#373679" d="M267,59.9L261.9,70l11.2-4.6c0.6-0.2,1.1-0.2,1.4,0.2l0.1,0.1c0.1,0.1,0.2,0.3,0.4,0.5
			c0.2,0.3,0.3,0.5,0.4,0.6c0.2,0.2,0.4,0.5,0.7,0.8c0.3,0.4,0.6,0.6,0.9,0.8l0.7,0.6c0,0,0.1,0.1,0.2,0.2c0.5,0.6,0.6,1,0.3,1.3
			c-0.3,0.3-0.7,0.3-1-0.1c-0.1-0.1-0.2-0.3-0.4-0.5s-0.3-0.4-0.4-0.5c-0.6-0.6-1.3-0.6-2,0.1l-1.1,1l-1.4,1.3l-1.3,1.2l-2.4,2.3
			c-0.8,0.7-0.9,1.4-0.3,2c0.1,0.1,0.3,0.2,0.4,0.4c0.3,0.3,0.4,0.4,0.5,0.5c0.4,0.4,0.4,0.7,0.1,1c-0.4,0.3-0.8,0.3-1.3-0.3
			c0,0-0.1-0.1-0.2-0.3c-0.7-0.9-1.3-1.7-1.9-2.3c-0.5-0.6-1.1-1.1-1.7-1.6c-0.2-0.2-0.4-0.4-0.6-0.5c-0.4-0.5-0.5-0.9-0.2-1.2
			c0.4-0.3,0.8-0.2,1.2,0.2c0.1,0.1,0.2,0.2,0.2,0.3c0.2,0.3,0.4,0.5,0.4,0.5c0.4,0.4,1.1,0.4,1.9-0.2c0.2-0.1,0.7-0.6,1.6-1.4
			c0.3-0.3,0.8-0.8,1.5-1.3l1.4-1.3l2.7-2.5c0.1-0.1,0.1-0.1,0-0.2c0,0-0.1,0-0.2,0l-11.9,4.8c-0.5,0.2-1,0.1-1.5-0.5
			c-0.3-0.3-0.5-0.6-0.5-0.8c-0.1-0.2,0-0.5,0.1-0.8l5.7-11.5c0-0.1,0-0.2,0-0.2c0,0-0.1,0-0.2,0l-7,6.7c-0.7,0.7-0.9,1.3-0.4,1.8
			c0.1,0.1,0.3,0.3,0.5,0.6l0.2,0.2c0.4,0.5,0.5,0.9,0.1,1.2c-0.3,0.3-0.8,0.2-1.2-0.2c-0.1-0.1-0.2-0.2-0.3-0.4
			c-0.2-0.3-0.5-0.6-0.7-1c-0.2-0.3-0.5-0.6-0.8-1c-0.6-0.7-1.1-1.1-1.3-1.3l-0.8-0.7c0,0-0.1-0.1-0.1-0.1c0,0-0.1-0.1-0.1-0.1
			c-0.5-0.6-0.6-1-0.3-1.3c0.1-0.1,0.3-0.2,0.5-0.2c0.2,0,0.4,0.1,0.5,0.3c0.1,0.1,0.3,0.3,0.4,0.5c0.1,0.2,0.3,0.4,0.3,0.4
			c0.6,0.6,1.3,0.6,2-0.1l6.2-5.8c0.8-0.7,0.9-1.4,0.3-2c-0.1-0.1-0.2-0.2-0.5-0.4c-0.2-0.2-0.4-0.3-0.5-0.4c-0.4-0.4-0.4-0.7,0-1
			c0.4-0.3,0.8-0.2,1.3,0.3c0,0,0.1,0.1,0.2,0.3l0.5,0.7c0.3,0.3,0.5,0.7,0.8,0.9c0.2,0.2,0.5,0.5,0.9,0.9c0.4,0.4,0.7,0.6,0.9,0.8
			c0.4,0.5,0.5,1,0.1,1.7L267,59.9z"/>
		<path fill="#373679" d="M276,80.4l-2.2,1.6c-0.6,0.4-0.9,0.7-1,0.8c-0.5,0.4-0.6,0.8-0.4,1.1c0,0.1,0.2,0.2,0.5,0.4
			c0.1,0.1,0.2,0.1,0.3,0.3c0.4,0.5,0.4,0.9,0,1.2c-0.2,0.1-0.4,0.1-0.6,0s-0.5-0.3-0.6-0.5c-0.2-0.2-0.4-0.6-0.7-1
			c-0.3-0.5-0.5-0.8-0.7-1c-0.3-0.4-0.6-0.7-0.9-1.1c-0.4-0.5-0.7-0.8-0.9-1c-0.4-0.5-0.4-1,0-1.2c0.4-0.3,0.7-0.2,1.1,0.3
			c0.1,0.1,0.2,0.3,0.3,0.5c0.1,0.2,0.2,0.4,0.3,0.5c0.2,0.3,0.7,0.3,1.5-0.2c0,0,0.5-0.4,1.5-1.1l1.4-1c0.9-0.7,1.4-1.1,1.5-1.1
			c0.7-0.6,0.9-1.1,0.6-1.4c-0.1-0.1-0.2-0.2-0.4-0.4c-0.2-0.2-0.3-0.3-0.4-0.4c-0.4-0.5-0.4-0.9,0-1.1c0.4-0.3,0.8-0.1,1.2,0.5
			c0.2,0.3,0.3,0.4,0.4,0.6c0.3,0.5,0.5,0.8,0.5,0.9c0.1,0.1,0.2,0.3,0.4,0.5c0.2,0.2,0.3,0.4,0.4,0.5c0.3,0.4,0.2,0.7-0.2,1.1
			c0,0-0.1,0.1-0.2,0.1c-0.1,0.1-0.2,0.1-0.2,0.1c-0.1,0.1-0.5,0.3-1.1,0.7C276.9,79.7,276.4,80.1,276,80.4z M279.6,76.1
			c-0.2-0.3-0.3-0.6-0.3-1c0-0.4,0.2-0.6,0.4-0.8c0.3-0.2,0.6-0.2,0.9-0.2c0.3,0.1,0.6,0.3,0.9,0.6c0.2,0.3,0.3,0.6,0.3,1
			s-0.2,0.6-0.4,0.8s-0.6,0.2-0.9,0.2C280.1,76.6,279.8,76.4,279.6,76.1z"/>
		<path fill="#373679" d="M282.6,85.4l-5.5,3.6c-0.6,0.4-0.8,0.8-0.5,1.2c0.1,0.1,0.2,0.2,0.4,0.5c0.1,0.2,0.2,0.3,0.3,0.3
			c0.3,0.5,0.3,0.8-0.1,1.1c-0.4,0.3-0.8,0.1-1.1-0.5c-0.1-0.2-0.4-0.6-0.6-1.1c-0.3-0.5-0.5-0.9-0.7-1.2c-0.1-0.2-0.4-0.5-0.7-1
			c-0.3-0.4-0.6-0.7-0.7-0.9l-0.1-0.1c-0.4-0.6-0.4-1,0.1-1.3c0.4-0.2,0.7-0.1,1,0.4c0,0,0.1,0.1,0.1,0.1c0,0.1,0.1,0.2,0.1,0.2
			c0.2,0.4,0.3,0.6,0.3,0.7c0.2,0.3,0.4,0.4,0.6,0.3c0.2-0.1,0.7-0.3,1.5-0.8l1.2-0.8l2.7-1.8l3.1-2.1c0.3-0.2,0.6-0.4,0.7-0.5
			c0.2-0.3,0.2-0.6,0-0.9c0,0-0.2-0.2-0.4-0.5c-0.1-0.1-0.2-0.3-0.3-0.4c-0.3-0.5-0.3-0.8,0.1-1.1c0.4-0.3,0.8-0.1,1.1,0.5
			c0.1,0.2,0.2,0.3,0.2,0.4l0.3,0.5c0.1,0.2,0.2,0.4,0.3,0.6c0.1,0.1,0.2,0.3,0.5,0.6c0.2,0.3,0.4,0.5,0.5,0.6
			c0.2,0.3,0.1,0.6-0.2,0.8c-0.1,0.1-0.2,0.1-0.3,0.2C285.6,83.5,284.3,84.3,282.6,85.4z"/>
		<path fill="#373679" d="M283.8,94l5,2.2c0.2,0.1,0.3,0.1,0.4,0s0.1-0.2,0-0.4c-0.1-0.1-0.2-0.3-0.4-0.6c-0.2-0.3-0.3-0.5-0.4-0.6
			c-0.3-0.5-0.2-0.9,0.2-1.1c0.4-0.2,0.8,0,1.2,0.6c0.1,0.2,0.2,0.4,0.3,0.6c0.5,1.1,0.8,1.9,1.1,2.4c0.2,0.3,0.3,0.5,0.4,0.7
			l0.6,0.8c0.1,0.2,0.2,0.4,0.3,0.5c0.4,0.7,0.4,1.2,0,1.4c-0.4,0.2-0.7,0.1-1-0.4c-0.1-0.1-0.1-0.3-0.2-0.5
			c-0.1-0.2-0.2-0.4-0.2-0.5c-0.2-0.4-0.6-0.7-1.1-0.9l-3-1.4c-0.2-0.1-0.4-0.1-0.4-0.1c-0.1,0-0.1,0.1-0.2,0.3l-1.5,4.5
			c-0.4,1.1-0.5,1.9-0.3,2.2c0,0.1,0.1,0.2,0.2,0.3c0.1,0.2,0.2,0.3,0.3,0.4c0.3,0.5,0.2,0.9-0.2,1.1c-0.4,0.2-0.8,0-1.2-0.7
			c-0.1-0.3-0.3-0.7-0.6-1.2c-0.2-0.6-0.4-1-0.6-1.2c-0.1-0.2-0.3-0.6-0.6-1c-0.3-0.4-0.5-0.7-0.6-1c-0.3-0.6-0.2-1,0.2-1.2
			c0.4-0.2,0.7-0.1,1,0.5c0.1,0.1,0.1,0.3,0.2,0.4c0.1,0.3,0.1,0.5,0.2,0.6c0.1,0.1,0.2,0.2,0.2,0.1c0,0,0,0,0.1,0c0,0,0,0,0,0
			l0.1-0.4l0.2-0.5l1.3-3.5c0.1-0.2,0.1-0.4,0-0.5c0-0.1-0.2-0.1-0.4-0.2l-2.1-1l-0.4,0.2c-0.6,0.3-0.9,0.5-1,0.6
			c-0.4,0.3-0.5,0.6-0.3,1c0.1,0.1,0.2,0.3,0.2,0.4c0.1,0.1,0.2,0.2,0.3,0.4c0.3,0.5,0.2,0.9-0.2,1.1c-0.4,0.2-0.8,0.1-1.1-0.5
			c-0.1-0.3-0.3-0.6-0.5-1.2c-0.2-0.5-0.4-0.9-0.5-1.2c-0.2-0.3-0.4-0.7-0.7-1.1c-0.4-0.5-0.6-0.9-0.7-1.1c-0.3-0.6-0.3-1,0.1-1.2
			c0.4-0.2,0.8-0.1,1.1,0.5c0.1,0.1,0.1,0.3,0.2,0.4c0.1,0.3,0.2,0.4,0.2,0.5c0.2,0.4,0.5,0.4,1,0.2l0.8-0.3l7.5-4.1
			c0.6-0.4,1-0.7,1.2-0.8s0.1-0.4,0-0.6c0-0.1-0.1-0.2-0.3-0.4c-0.2-0.2-0.3-0.4-0.4-0.6c-0.3-0.5-0.2-0.8,0.2-1
			c0.4-0.2,0.8-0.1,1.1,0.5c0.2,0.3,0.3,0.5,0.3,0.6c0.2,0.4,0.3,0.6,0.3,0.8c0.1,0.1,0.2,0.3,0.3,0.5c0.1,0.2,0.3,0.4,0.3,0.5
			l0.1,0.2c0.3,0.5,0.1,0.8-0.4,1.1L283.8,94z"/>
		<path fill="#373679" d="M296.6,107.6c0.4,1,0.6,2,0.4,2.9l0.1,0c0.5-0.2,0.8-0.1,1,0.4c0.2,0.5,0.1,0.9-0.3,1
			c-0.1,0-0.3,0.1-0.6,0.2c-0.3,0.1-0.5,0.1-0.8,0.2c-0.2,0.1-0.4,0.2-0.7,0.3c-0.3,0.2-0.5,0.3-0.7,0.3c-0.5,0.2-0.8,0.1-1.1-0.4
			c-0.2-0.5-0.1-0.8,0.3-1l0.6-0.3c0.4-0.2,0.6-0.6,0.7-1.2c0.1-0.6-0.1-1.3-0.3-2c-0.3-0.7-0.7-1.2-1.2-1.6c-0.5-0.4-1-0.4-1.4-0.2
			c-0.8,0.3-1,1.2-0.6,2.7l0.4,1.4c0.8,2.8,0.4,4.5-1.1,5.1c-0.9,0.4-1.9,0.3-2.8-0.3c-0.9-0.6-1.7-1.6-2.3-3
			c-0.5-1.3-0.7-2.5-0.5-3.7c-0.1,0.1-0.3,0.1-0.4,0.2c-0.5,0.2-0.8,0-1-0.5c-0.2-0.6-0.1-1,0.4-1.2c-0.1,0,0.3-0.1,1.1-0.3
			c0.2,0,0.4-0.1,0.6-0.2c0.3-0.1,0.6-0.3,0.8-0.5c0.2-0.2,0.4-0.3,0.6-0.4c0.5-0.2,0.8,0,1,0.5c0.1,0.3,0.2,0.6,0.1,0.7
			c-0.1,0.1-0.4,0.3-1,0.6c-0.6,0.2-0.9,0.8-0.9,1.6c-0.1,0.8,0.1,1.8,0.6,2.8c0.3,0.8,0.7,1.3,1.3,1.7c0.5,0.4,1,0.4,1.5,0.2
			c0.9-0.4,1-1.4,0.5-3.1c-0.5-1.7-0.8-3-0.7-4c0-1,0.5-1.7,1.5-2.1c0.9-0.4,1.8-0.3,2.7,0.3C295.3,105.3,296.1,106.3,296.6,107.6z"
			/>
		<path fill="#373679" d="M303.3,117.9l-4,1.1c0.7,0.5,1.2,1,1.6,1.4s0.6,1.1,0.9,1.8c0.4,1.4,0.4,2.6,0,3.6c-0.4,1-1.1,1.7-2.2,2
			l-3.4,1c-0.8,0.2-1.2,0.4-1.3,0.4c-0.7,0.3-0.9,0.6-0.8,0.9c0,0.1,0.1,0.3,0.3,0.5c0,0.1,0.1,0.2,0.1,0.4c0.2,0.6,0,1-0.4,1.1
			c-0.5,0.1-0.8-0.2-1-1c-0.1-0.2-0.1-0.5-0.2-0.9c-0.1-0.7-0.3-1.3-0.4-1.7c-0.1-0.4-0.2-0.7-0.3-1c-0.3-0.7-0.4-1.1-0.5-1.2
			c-0.1-0.3-0.1-0.6,0-0.8c0.1-0.2,0.2-0.4,0.4-0.4c0.2-0.1,0.3,0,0.5,0.1c0.2,0.1,0.3,0.3,0.4,0.5c0.1,0.2,0.1,0.4,0.1,0.7
			c0,0.2,0,0.3,0.1,0.4c0.1,0.5,0.7,0.6,1.5,0.4c0.2,0,0.5-0.1,1-0.2l0.9-0.3l1.1-0.3c1.4-0.4,2.2-0.8,2.6-1.3
			c0.6-0.7,0.7-1.6,0.3-2.8c-0.4-1.3-1-2.1-1.9-2.5c-0.6-0.3-1.5-0.2-2.6,0.1l-1.5,0.4c-0.1,0-0.2,0-0.4,0c-0.2,0.1-0.3,0.1-0.4,0.1
			c-0.8,0.2-1.2,0.4-1.3,0.4c-0.6,0.3-0.9,0.6-0.8,1c0,0.1,0.1,0.3,0.3,0.5s0.2,0.4,0.3,0.5c0.2,0.5,0,0.9-0.4,1
			c-0.5,0.1-0.8-0.1-1-0.9c-0.1-0.2-0.1-0.6-0.2-1c-0.1-0.6-0.3-1.2-0.4-1.6c-0.1-0.3-0.2-0.6-0.4-1.1c-0.2-0.6-0.4-1-0.5-1.2
			c-0.2-0.7,0-1.1,0.4-1.2c0.4-0.1,0.7,0.1,0.9,0.7c0.1,0.2,0.1,0.4,0.1,0.5c0,0.3,0.1,0.5,0.1,0.6c0.1,0.3,0.3,0.4,0.8,0.3
			c0.4,0,1.3-0.2,2.6-0.6l3.6-1.1c2-0.6,3.3-1,3.8-1.3c0.5-0.3,0.7-0.6,0.6-0.9c0-0.1-0.1-0.3-0.2-0.5c-0.1-0.2-0.2-0.4-0.2-0.5
			c-0.2-0.5,0-0.9,0.4-1c0.2-0.1,0.4,0,0.6,0.1c0.2,0.2,0.3,0.4,0.4,0.6c0,0.1,0.1,0.4,0.2,0.8c0.1,0.3,0.1,0.6,0.3,1
			c0,0.1,0.1,0.3,0.2,0.6c0.1,0.2,0.2,0.4,0.2,0.5C303.9,117.5,303.8,117.7,303.3,117.9L303.3,117.9z"/>
		<path fill="#373679" d="M295.2,143.7c-0.2-1.4,0.1-2.3,1-2.8c-1.2-0.7-1.9-1.9-2.3-3.7c-0.2-1.3-0.2-2.5,0.2-3.4
			c0.4-0.9,1.1-1.4,2-1.6c1.1-0.2,2.1,0.2,2.8,1.3c0.3,0.4,0.5,0.8,0.6,1.1s0.3,0.9,0.6,1.9c0.4,1.4,0.7,2.2,1,2.6
			c0.3,0.4,0.7,0.5,1.3,0.4c0.6-0.1,1-0.4,1.2-1c0.2-0.5,0.3-1.2,0.1-2.1c-0.1-0.7-0.4-1.4-0.9-2c-0.2-0.2-0.4-0.3-0.5-0.3
			c-0.1,0-0.1,0.1-0.2,0.3c-0.1,0.3-0.3,0.4-0.6,0.5c-0.3,0.1-0.5,0-0.7-0.2c-0.2-0.2-0.4-0.5-0.4-0.9c-0.1-0.4,0-0.8,0.2-1.1
			s0.5-0.5,0.8-0.6c0.8-0.1,1.5,0.2,2.2,1c0.7,0.8,1.2,1.9,1.4,3.2c0.6,3-0.4,4.7-2.8,5.2l-4.2,0.8c-0.7,0.1-1,0.2-1.2,0.3
			c-0.5,0.2-0.7,0.5-0.6,1c0.1,0.6,0.6,0.8,1.5,0.6l1-0.2c0.4-0.1,0.7,0.1,0.8,0.6c0.1,0.5-0.2,0.9-0.8,1l-0.1,0l-1.2,0.2
			C296.3,146.1,295.5,145.4,295.2,143.7z M298.8,140.2l1.5-0.3c-0.3-0.3-0.6-0.7-0.8-1s-0.4-1.1-0.7-2.1c-0.5-1.8-1.2-2.7-2.3-2.5
			c-0.5,0.1-0.9,0.4-1.1,0.9c-0.2,0.5-0.3,1.2-0.1,1.9c0.2,1.1,0.6,1.9,1.2,2.5C297.2,140.2,297.9,140.4,298.8,140.2z"/>
		<path fill="#373679" d="M301.6,150.2l3.7,4c0.1,0.1,0.3,0.2,0.4,0.2c0.1,0,0.2-0.1,0.2-0.3c0-0.2-0.1-0.4-0.1-0.7
			c-0.1-0.3-0.1-0.6-0.1-0.7c0-0.6,0.2-0.9,0.6-0.9c0.5,0,0.8,0.3,0.8,1.1c0,0.2,0,0.4,0,0.7c0,1.2,0,2,0,2.6c0,0.3,0.1,0.6,0.1,0.9
			l0.2,1c0,0.2,0.1,0.4,0.1,0.6c0.1,0.8-0.1,1.2-0.6,1.3c-0.5,0-0.7-0.2-0.7-0.8c0-0.1,0-0.3,0-0.6c0-0.2,0-0.4,0-0.6
			c0-0.4-0.2-0.8-0.6-1.3l-2.2-2.5c-0.2-0.2-0.3-0.3-0.4-0.3c-0.1,0-0.2,0.1-0.3,0.2l-3.2,3.5c-0.8,0.9-1.2,1.5-1.2,1.9
			c0,0.1,0,0.2,0.1,0.4c0,0.2,0.1,0.3,0.1,0.5c0,0.6-0.2,0.9-0.6,1c-0.5,0-0.7-0.3-0.8-1.1c0-0.3,0-0.8,0-1.3c0-0.6,0-1,0-1.3
			c0-0.3-0.1-0.7-0.2-1.2c-0.1-0.5-0.1-0.9-0.2-1.1c0-0.6,0.2-1,0.6-1c0.4,0,0.7,0.3,0.7,0.9c0,0.2,0,0.3,0,0.4
			c0,0.3-0.1,0.5-0.1,0.6c0,0.2,0.1,0.2,0.2,0.2c0,0,0,0,0.1,0c0,0,0,0,0,0l0.3-0.3l0.4-0.4l2.6-2.7c0.2-0.2,0.3-0.3,0.2-0.4
			c0-0.1-0.1-0.2-0.2-0.4l-1.5-1.8l-0.5,0c-0.7,0-1,0.1-1.1,0.1c-0.5,0.1-0.7,0.4-0.7,0.8c0,0.2,0,0.3,0.1,0.4
			c0,0.1,0.1,0.3,0.1,0.5c0,0.6-0.2,0.9-0.6,0.9s-0.7-0.3-0.8-0.9c0-0.3,0-0.7,0-1.3s0-1,0-1.3c0-0.4-0.1-0.8-0.2-1.3
			c-0.1-0.6-0.2-1.1-0.2-1.3c0-0.7,0.2-1,0.6-1s0.7,0.3,0.8,0.9c0,0.1,0,0.3,0,0.5c0,0.3,0,0.5,0,0.6c0,0.4,0.3,0.6,0.8,0.6l0.8,0
			l8.5-0.6c0.8-0.1,1.2-0.2,1.4-0.3s0.3-0.3,0.3-0.6c0-0.1,0-0.2-0.1-0.5c-0.1-0.2-0.1-0.5-0.2-0.7c0-0.6,0.2-0.9,0.6-0.9
			c0.5,0,0.7,0.3,0.8,0.9c0,0.3,0,0.6,0,0.7c0,0.4,0,0.7,0,0.8c0,0.1,0,0.3,0.1,0.6c0,0.3,0.1,0.4,0.1,0.6l0,0.2
			c0,0.5-0.2,0.8-0.8,0.9L301.6,150.2z"/>
		<path fill="#373679" d="M302.8,173c-0.5,0-0.9-0.1-1-0.2c-0.1-0.1-0.2-0.3-0.2-0.7l0.2-8c0-0.2,0-0.4-0.1-0.4
			c0-0.1-0.1-0.1-0.2-0.1c-1.1,0-1.9,0.3-2.7,1.1s-1.1,1.7-1.1,2.8c0,0.7,0.1,1.4,0.5,2c0.3,0.6,0.7,1,1.3,1.2l0.6,0.2
			c0.3,0.1,0.5,0.4,0.5,0.8c0,0.6-0.3,0.9-0.8,0.9c-0.9,0-1.7-0.6-2.4-1.7s-1-2.4-1-3.8c0-1.8,0.6-3.2,1.6-4.2s2.4-1.5,4-1.5
			c1.7,0,3.1,0.6,4.1,1.8c1,1.1,1.5,2.6,1.5,4.4c0,1.6-0.5,2.9-1.4,3.9C305.3,172.6,304.2,173,302.8,173z M303.6,163.9
			c-0.2,0-0.3,0.2-0.3,0.5l-0.2,6c0,0.4,0.1,0.5,0.3,0.5c0.7,0,1.4-0.3,2-1c0.6-0.7,0.9-1.4,0.9-2.3c0-0.9-0.2-1.8-0.8-2.6
			C304.9,164.3,304.3,163.9,303.6,163.9z"/>
		<path fill="#373679" d="M300.7,188.4c0.1-0.5,0.3-0.8,0.6-1.1c0.3-0.3,0.7-0.4,1.1-0.3c0.4,0.1,0.7,0.3,0.9,0.7s0.3,0.8,0.2,1.3
			c-0.1,0.5-0.3,0.9-0.6,1.1c-0.3,0.3-0.7,0.4-1.1,0.3c-0.4-0.1-0.7-0.3-0.9-0.7S300.6,188.9,300.7,188.4z"/>
		<path fill="#373679" d="M303.1,212.9c-0.5,1.6-1.4,2.7-2.6,3.4l0.3,0.1c0.5,0.2,0.7,0.5,0.5,1c-0.2,0.5-0.6,0.7-1.1,0.5l-0.1,0
			c0,0-0.2-0.1-0.6-0.3s-0.8-0.4-1.3-0.5c-0.1,0-0.3-0.1-0.7-0.2l-0.8-0.2c-0.1,0-0.2,0-0.3-0.1c-0.6-0.2-0.9-0.6-0.6-1.2
			c0.2-0.6,0.6-0.8,1.1-0.7l0.1,0l0.5,0.2c0.2,0.1,0.3,0.1,0.4,0.2c0.8,0.3,1.5,0.2,2.2-0.3c0.7-0.5,1.2-1.3,1.6-2.4
			c0.4-1,0.4-1.9,0.2-2.7c-0.2-0.8-0.7-1.3-1.4-1.5c-0.8-0.3-1.6-0.1-2.3,0.7c-0.4,0.4-0.9,1.3-1.5,2.5c-0.9,1.8-1.7,3-2.4,3.5
			c-1,0.8-2.1,1-3.3,0.6c-1.2-0.4-2.1-1.3-2.5-2.7c-0.4-1.3-0.3-2.9,0.3-4.5c0.6-1.8,1.6-3.1,3-4c-0.1,0-0.1,0-0.2-0.1
			c-0.1,0-0.1,0-0.1,0c-0.2,0-0.4,0-0.4,0c-0.5-0.2-0.6-0.5-0.4-1.1c0.2-0.6,0.6-0.9,1.2-0.7c0.1,0,0.1,0.1,0.1,0.1l1,0.5
			c0.5,0.2,0.8,0.4,1,0.4c0.3,0.1,0.7,0.2,1.2,0.3s1,0.2,1.2,0.3c0.6,0.2,0.8,0.6,0.6,1.2c-0.2,0.6-0.6,0.8-1.2,0.6l-0.4-0.1
			c-0.1,0-0.3-0.1-0.5-0.2c-1-0.3-1.9-0.2-2.8,0.3c-0.8,0.6-1.5,1.5-2,2.8c-0.4,1.2-0.5,2.2-0.3,3.1c0.2,0.9,0.8,1.5,1.6,1.7
			c1.3,0.4,2.4-0.2,3.3-2.1l0.7-1.3c0.7-1.3,1.3-2.2,1.8-2.9c0.5-0.6,1.1-1,1.7-1.2c0.7-0.2,1.4-0.2,2,0c1.2,0.4,1.9,1.2,2.3,2.5
			C303.7,209.9,303.6,211.3,303.1,212.9z"/>
		<path fill="#373679" d="M281.6,225.8c0.6-1.2,1.4-1.8,2.4-1.7c-0.6-1.2-0.5-2.7,0.3-4.3c0.6-1.2,1.3-2.1,2.2-2.6
			c0.9-0.5,1.7-0.5,2.6-0.1c1.1,0.5,1.6,1.4,1.6,2.7c0,0.5,0,0.9-0.1,1.2c-0.1,0.3-0.3,1-0.6,1.9c-0.5,1.3-0.7,2.2-0.7,2.7
			c0,0.5,0.3,0.9,0.8,1.1c0.5,0.2,1,0.2,1.5-0.1s0.9-0.8,1.3-1.6c0.3-0.7,0.5-1.4,0.4-2.1c0-0.3-0.1-0.5-0.2-0.5
			c-0.1,0-0.1,0-0.3,0.1c-0.2,0.2-0.5,0.2-0.8,0c-0.3-0.1-0.4-0.3-0.5-0.6s0-0.6,0.1-0.9c0.2-0.4,0.5-0.7,0.8-0.8
			c0.4-0.2,0.7-0.2,1,0c0.7,0.3,1.1,1,1.2,2.1c0.1,1.1-0.1,2.2-0.7,3.4c-1.3,2.8-3.1,3.6-5.3,2.6l-3.8-1.8c-0.6-0.3-1-0.4-1.1-0.5
			c-0.5-0.1-0.8,0-1,0.5c-0.3,0.5,0,1,0.8,1.4l0.9,0.4c0.4,0.2,0.5,0.5,0.3,1c-0.2,0.5-0.7,0.6-1.3,0.3l-0.1,0l-1.1-0.5
			C281.1,228.3,280.9,227.3,281.6,225.8z M286.6,225l1.3,0.6c-0.1-0.5-0.1-0.9,0-1.3c0.1-0.4,0.3-1.1,0.7-2.1
			c0.7-1.8,0.6-2.9-0.4-3.3c-0.5-0.2-1-0.2-1.4,0.1c-0.5,0.3-0.9,0.8-1.2,1.5c-0.5,1-0.6,1.9-0.4,2.7
			C285.3,224,285.8,224.6,286.6,225z"/>
		<path fill="#373679" d="M286,236.4l-5.7-3.3c-0.6-0.3-1.1-0.3-1.3,0.1c-0.1,0.1-0.1,0.3-0.2,0.6c-0.1,0.2-0.1,0.3-0.2,0.4
			c-0.3,0.5-0.6,0.6-1,0.4c-0.4-0.2-0.4-0.6-0.1-1.2c0.1-0.2,0.4-0.6,0.7-1.1s0.6-0.9,0.7-1.1c0.1-0.2,0.3-0.6,0.5-1.1
			c0.2-0.5,0.4-0.8,0.5-1.1l0.1-0.1c0.4-0.6,0.7-0.8,1.2-0.5c0.4,0.2,0.4,0.6,0.1,1.1c0,0,0,0.1-0.1,0.2c-0.1,0.1-0.1,0.1-0.1,0.2
			c-0.3,0.3-0.4,0.5-0.5,0.6c-0.2,0.3-0.2,0.5,0,0.7c0.2,0.2,0.6,0.5,1.4,1l1.3,0.8l2.8,1.6l3.3,1.9c0.4,0.2,0.6,0.3,0.8,0.4
			c0.3,0.1,0.6-0.1,0.8-0.4c0,0,0.1-0.2,0.3-0.6c0.1-0.2,0.1-0.3,0.2-0.4c0.3-0.5,0.6-0.6,1-0.4c0.4,0.2,0.4,0.6,0.1,1.2
			c-0.1,0.2-0.2,0.3-0.3,0.4l-0.4,0.5c-0.2,0.2-0.3,0.4-0.4,0.6c-0.1,0.1-0.2,0.4-0.3,0.7c-0.1,0.3-0.2,0.5-0.3,0.7
			c-0.2,0.3-0.5,0.4-0.8,0.2c-0.1-0.1-0.2-0.1-0.3-0.2C289,238.2,287.7,237.4,286,236.4z"/>
		<path fill="#373679" d="M270.3,243.9c0.8-1.1,1.7-1.6,2.7-1.3c-0.4-1.3-0.1-2.7,1-4.2c0.8-1.1,1.6-1.9,2.5-2.2
			c0.9-0.4,1.8-0.3,2.5,0.3c1,0.7,1.3,1.6,1.1,2.9c-0.1,0.5-0.2,0.9-0.3,1.2c-0.1,0.3-0.4,0.9-0.9,1.8c-0.7,1.2-1.1,2.1-1.1,2.6
			c-0.1,0.5,0.2,0.9,0.7,1.2c0.5,0.3,1,0.4,1.5,0.2c0.5-0.2,1.1-0.7,1.5-1.4c0.4-0.6,0.7-1.3,0.8-2c0-0.3,0-0.5-0.2-0.6
			c0,0-0.1,0-0.3,0.1c-0.2,0.1-0.5,0.1-0.8-0.1c-0.2-0.2-0.4-0.4-0.4-0.7s0.1-0.6,0.3-0.9c0.2-0.4,0.6-0.6,0.9-0.7
			c0.4-0.1,0.7,0,1,0.2c0.6,0.4,0.9,1.2,0.9,2.3c-0.1,1.1-0.5,2.2-1.2,3.3c-1.7,2.5-3.6,3.1-5.6,1.7l-3.5-2.4
			c-0.6-0.4-0.9-0.6-1-0.6c-0.5-0.2-0.8-0.1-1.1,0.3c-0.3,0.5-0.1,1,0.6,1.5l0.8,0.6c0.4,0.3,0.4,0.6,0.1,1
			c-0.3,0.5-0.7,0.5-1.3,0.1l-0.1-0.1l-1-0.7C269.4,246.4,269.4,245.3,270.3,243.9z M275.3,244l1.2,0.8c0-0.5,0-0.9,0.2-1.3
			c0.1-0.4,0.5-1.1,1-2c1-1.7,1-2.8,0.2-3.4c-0.4-0.3-0.9-0.3-1.4-0.1c-0.5,0.2-1,0.6-1.4,1.3c-0.6,0.9-0.9,1.8-0.9,2.6
			S274.6,243.4,275.3,244z"/>
		<path fill="#373679" d="M273.4,257.8c-1.1,1.3-2.3,1.9-3.6,1.8l1.6,1.4c0.4,0.4,0.7,0.6,0.8,0.6c0.4,0.2,0.7,0.2,1-0.1
			c0.1-0.1,0.2-0.3,0.3-0.5c0.1-0.2,0.2-0.4,0.3-0.5c0.4-0.5,0.8-0.6,1.1-0.3c0.4,0.3,0.3,0.8-0.3,1.4c-0.1,0.1-0.3,0.3-0.5,0.5
			c-0.4,0.4-0.6,0.6-0.6,0.6c-0.1,0.1-0.2,0.3-0.4,0.5c-0.2,0.2-0.3,0.4-0.4,0.5c-0.3,0.4-0.7,0.4-1.1,0l-0.2-0.2
			c0,0-0.3-0.3-0.8-0.8c-0.1-0.1-0.5-0.4-1.2-1.1c-0.5-0.5-0.9-0.8-1.2-1.1l-1.6-1.3l-2.7-2.3c-0.7-0.6-1.2-0.9-1.4-1
			c-0.2-0.1-0.4,0-0.7,0.2c-0.1,0.2-0.2,0.3-0.3,0.4c-0.2,0.2-0.3,0.4-0.3,0.5c-0.4,0.5-0.8,0.6-1.1,0.3c-0.4-0.3-0.3-0.8,0.2-1.3
			c0.1-0.1,0.3-0.3,0.5-0.5c0.2-0.2,0.4-0.4,0.5-0.6c0,0,0.1-0.2,0.3-0.5c0.1-0.2,0.2-0.3,0.3-0.4c0.3-0.3,0.6-0.4,1,0l0.1,0.1
			l0.3,0.2c-0.2-1.3,0.3-2.6,1.4-3.9c1.1-1.3,2.4-2,3.9-2.1s2.8,0.4,4.1,1.5c1.3,1.1,2,2.4,2.1,3.8S274.5,256.5,273.4,257.8z
			 M265.4,255.8c0.3,0.4,0.7,0.8,1.3,1.2c0.7,0.6,1.2,1,1.5,1.1c0.6,0.3,1.3,0.4,2,0.2c0.8-0.2,1.5-0.7,2-1.3c0.8-0.9,1.1-1.8,1-2.8
			c-0.1-1-0.7-1.9-1.7-2.7c-1-0.9-2-1.3-3.1-1.2c-1,0-1.9,0.5-2.7,1.4c-0.6,0.7-0.9,1.4-1,2.2C264.7,254.6,264.9,255.2,265.4,255.8z
			"/>
		<path fill="#373679" d="M253.4,271.1c0.4-0.3,0.8-0.5,1.2-0.5c0.4,0,0.8,0.1,1,0.4c0.3,0.3,0.3,0.7,0.3,1.1
			c-0.1,0.4-0.3,0.8-0.6,1.1c-0.4,0.3-0.8,0.5-1.2,0.5c-0.4,0-0.8-0.1-1.1-0.5c-0.3-0.3-0.3-0.7-0.3-1.1
			C252.8,271.8,253,271.4,253.4,271.1z"/>
		<path fill="#373679" d="M231.3,292.3c-0.7-1.2-0.4-2.6,0.9-4.1c-0.7,0.2-1.3,0.3-1.8,0.4c-1.5,0.1-2.6-0.4-3.3-1.5
			c-0.7-1.1-0.7-2.3-0.1-3.6c0.6-1.3,1.8-2.4,3.5-3.5c0.6-0.4,1.4-0.8,2.4-1.3c1-0.5,1.7-0.9,2.1-1.2c0.4-0.2,0.7-0.5,1.1-0.7
			l0.9-0.7c0,0,0.1-0.1,0.1-0.1c0.1,0,0.1-0.1,0.2-0.1c0.6-0.4,1.1-0.3,1.3,0.1c0.2,0.4,0.1,0.7-0.3,1c-0.1,0.1-0.3,0.2-0.6,0.3
			c-0.2,0.1-0.4,0.2-0.5,0.2c-0.7,0.4-0.8,1.1-0.3,2l4.4,7.2c0.5,0.9,1.2,1.1,1.9,0.7c0.1-0.1,0.3-0.2,0.4-0.3
			c0.2-0.2,0.4-0.3,0.5-0.4c0.4-0.3,0.8-0.2,1,0.2c0.3,0.4,0.1,0.8-0.6,1.2l-0.3,0.2l-1.1,0.5c-0.3,0.1-0.7,0.4-1.3,0.7
			c-0.5,0.3-1.3,0.8-2.3,1.5c-0.6,0.5-1.4,0.9-2.1,1.4c-1.5,0.9-2.7,1.3-3.9,1.3C232.6,293.7,231.8,293.2,231.3,292.3z M236.8,282.9
			l-1.2-2c-0.5-0.8-0.9-1.2-1.3-1.2c-0.4,0-1.3,0.4-2.7,1.3c-2.7,1.6-3.5,3.3-2.5,5c0.9,1.5,2.7,1.5,5.3,0l1.8-1.1
			c0.8-0.5,1.1-0.9,1.1-1.2C237.1,283.5,237,283.2,236.8,282.9z M239,286.5c-0.4-0.6-0.7-1-0.9-1.1c-0.2-0.1-0.6,0.1-1.3,0.5
			l-1.2,0.7c-2.5,1.5-3.4,3-2.6,4.4c0.8,1.3,2.2,1.3,4.3,0c1.5-0.9,2.3-1.5,2.6-1.9c0.2-0.4,0.2-0.9-0.2-1.5L239,286.5z"/>
		<path fill="#373679" d="M215.5,294.8c-0.2-0.5-0.3-0.8-0.3-0.9c0-0.1,0.2-0.3,0.6-0.5l7.3-3.4c0.2-0.1,0.3-0.2,0.4-0.2
			c0-0.1,0-0.2,0-0.3c-0.4-1-1.2-1.6-2.1-1.9s-2-0.2-3,0.2c-0.7,0.3-1.2,0.7-1.6,1.3c-0.4,0.6-0.6,1.1-0.5,1.7l0.1,0.6
			c0,0.4-0.1,0.6-0.5,0.8c-0.6,0.3-1,0.1-1.2-0.3c-0.4-0.8-0.2-1.8,0.5-2.9c0.7-1.1,1.7-2,3-2.5c1.6-0.7,3.1-0.9,4.4-0.4
			c1.4,0.5,2.4,1.4,3.1,3c0.7,1.6,0.8,3,0.2,4.5s-1.6,2.5-3.3,3.3c-1.4,0.7-2.8,0.8-4.1,0.4C217,296.8,216.1,296,215.5,294.8z
			 M224,291.4c-0.1-0.2-0.3-0.2-0.6,0l-5.5,2.5c-0.3,0.1-0.4,0.3-0.4,0.5c0.3,0.7,0.9,1.1,1.7,1.3s1.7,0.1,2.5-0.2
			c0.9-0.4,1.5-1,2-1.9C224.2,292.8,224.3,292.1,224,291.4z"/>
		<path fill="#373679" d="M202.8,299.3c-0.2-0.5-0.2-0.8-0.2-1c0-0.1,0.2-0.3,0.6-0.4l7.6-2.6c0.2-0.1,0.3-0.1,0.4-0.2
			c0-0.1,0.1-0.2,0-0.3c-0.3-1-1-1.7-1.9-2.1s-1.9-0.4-3-0.1c-0.7,0.2-1.3,0.6-1.7,1.1c-0.5,0.5-0.7,1.1-0.7,1.6l0,0.7
			c0,0.4-0.2,0.6-0.6,0.8c-0.6,0.2-1,0.1-1.1-0.4c-0.3-0.9,0-1.8,0.8-2.8c0.8-1,1.9-1.8,3.2-2.3c1.7-0.6,3.1-0.6,4.5,0
			c1.3,0.6,2.2,1.7,2.8,3.2c0.6,1.6,0.5,3.1-0.2,4.5c-0.7,1.4-1.9,2.4-3.6,2.9c-1.5,0.5-2.9,0.5-4.1,0
			C204.1,301.5,203.2,300.6,202.8,299.3z M211.6,296.8c-0.1-0.2-0.3-0.2-0.6-0.1l-5.7,2c-0.3,0.1-0.5,0.3-0.4,0.5
			c0.2,0.7,0.8,1.2,1.6,1.5c0.8,0.3,1.6,0.3,2.5,0c0.9-0.3,1.6-0.9,2.1-1.7C211.6,298.2,211.8,297.5,211.6,296.8z"/>
		<path fill="#373679" d="M197.9,304.5l-0.1-0.6c-0.6,1.2-1.6,2-3,2.3c-1.1,0.3-2.1,0.2-3-0.1c-0.8-0.4-1.4-1-1.6-1.8
			c-0.1-0.6-0.1-1.1,0.2-1.6c0.3-0.5,0.7-0.8,1.3-0.9c0.4-0.1,0.7-0.1,1,0c0.3,0.1,0.5,0.3,0.6,0.6c0.1,0.2,0,0.4-0.1,0.7
			c-0.2,0.2-0.4,0.4-0.6,0.4c0,0-0.2,0-0.3,0c-0.1,0.2-0.1,0.3,0,0.5c0.1,0.4,0.4,0.7,0.9,0.8c0.5,0.2,1,0.2,1.7,0
			c1.3-0.3,2-1,2.2-2.1c0.1-0.7,0-1.6-0.3-2.8l-0.3-1.3c-0.2-0.9-0.4-1.4-0.4-1.5c-0.3-0.8-0.6-1.1-1-1c-0.2,0.1-0.4,0.1-0.6,0.2
			c-0.2,0.1-0.3,0.1-0.5,0.2c-0.5,0.1-0.8,0-0.9-0.4c-0.1-0.5,0.2-0.8,0.8-1l0.1,0c0.2-0.1,0.6-0.1,1.1-0.2s0.9-0.1,1.1-0.2
			c0.6-0.2,1.2-0.3,1.5-0.4l1.3-0.4c0.7-0.2,1.1,0,1.2,0.5c0.1,0.4-0.2,0.7-0.8,0.9c-0.2,0-0.3,0.1-0.4,0.1l-0.4,0
			c-0.2,0-0.3,0-0.4,0c-0.4,0.1-0.6,0.5-0.4,1.1l0.3,1l1.2,4.6c0.2,0.8,0.6,1.1,1,1c0.1,0,0.3-0.1,0.5-0.2c0.2-0.1,0.4-0.2,0.5-0.2
			c0.5-0.1,0.9,0,1,0.5c0.1,0.5-0.2,0.8-0.9,1c-0.2,0-0.4,0.1-0.7,0.1c-0.3,0-0.6,0.1-0.7,0.1c-0.1,0-0.3,0.1-0.6,0.2
			c-0.1,0.1-0.3,0.1-0.5,0.2C198.3,305,198,304.8,197.9,304.5z"/>
		<path fill="#373679" d="M175.1,304.5c0.5,0,0.9,0.1,1.2,0.3s0.6,0.6,0.6,1c0,0.4-0.1,0.7-0.4,1.1c-0.3,0.3-0.7,0.5-1.2,0.5
			c-0.5,0-0.9-0.1-1.3-0.3c-0.4-0.2-0.6-0.6-0.6-1c0-0.4,0.1-0.7,0.4-1.1C174.2,304.7,174.6,304.5,175.1,304.5z"/>
		<path fill="#373679" d="M144.8,309.1c0.1-1.4,1.1-2.4,3.1-2.8c-0.7-0.2-1.3-0.5-1.7-0.7c-1.3-0.7-1.9-1.8-1.8-3.1
			c0.1-1.3,0.7-2.3,2-3s2.9-1,4.8-0.8c0.7,0,1.6,0.1,2.7,0.3c1.1,0.1,1.9,0.2,2.4,0.3c0.5,0,0.9,0,1.3,0l1.2,0c0,0,0.1,0,0.2,0
			c0.1,0,0.1,0,0.2,0c0.7,0.1,1.1,0.3,1,0.8c0,0.4-0.3,0.7-0.8,0.6c-0.1,0-0.4,0-0.7-0.1c-0.2,0-0.4-0.1-0.5-0.1
			c-0.9-0.1-1.3,0.4-1.4,1.5l-0.6,8.4c-0.1,1,0.3,1.6,1.2,1.7c0.2,0,0.3,0,0.5,0c0.3,0,0.5,0,0.7,0c0.5,0,0.8,0.3,0.7,0.7
			c0,0.5-0.4,0.7-1.2,0.7l-0.3,0l-1.2-0.2c-0.3-0.1-0.8-0.1-1.4-0.2c-0.6,0-1.5-0.1-2.7-0.1c-0.8,0-1.6,0-2.5-0.1
			c-1.7-0.1-3-0.5-3.9-1.2S144.7,310.2,144.8,309.1z M154.8,304.6l0.2-2.3c0.1-0.9-0.1-1.5-0.4-1.7c-0.4-0.2-1.4-0.4-3-0.5
			c-3.1-0.2-4.8,0.7-4.9,2.6c-0.1,1.8,1.3,2.8,4.3,3l2.1,0.1c0.9,0.1,1.4-0.1,1.6-0.4C154.7,305.3,154.8,305,154.8,304.6z
			 M154.5,308.9c0-0.7,0-1.2-0.1-1.4s-0.6-0.3-1.3-0.4l-1.4-0.1c-3-0.2-4.5,0.5-4.6,2.1c-0.1,1.5,1.1,2.3,3.5,2.4
			c1.7,0.1,2.8,0.1,3.2-0.1s0.6-0.6,0.7-1.4L154.5,308.9z"/>
		<path fill="#373679" d="M132.6,296.7l-0.1,0.6c1.1-0.8,2.5-1.1,4.2-0.8c1.9,0.4,3.2,1.1,3.8,2.3c0.2,0.5,0.3,1.1,0.3,1.7
			c0,0.3-0.1,0.9-0.3,1.8l-0.3,1.7c-0.4,1.9-0.3,2.9,0.2,3c0.1,0,0.3,0,0.5,0.1c0.2,0,0.4,0,0.5,0.1c0.6,0.1,0.8,0.4,0.7,0.8
			c-0.1,0.4-0.5,0.6-1.2,0.5c-0.2,0-0.4-0.1-0.7-0.2c-0.3-0.1-0.6-0.2-0.7-0.2c-0.1,0-0.4-0.1-0.8-0.1c-0.3,0-0.4,0-0.4,0
			c-0.5-0.1-0.7-0.4-0.6-0.9l0.1-0.4l0.3-1.3l0.4-1.5l0.3-1.3c0.2-1.2,0.3-2.1,0.1-2.6c-0.2-0.9-1-1.5-2.5-1.8
			c-0.7-0.1-1.4-0.1-2,0.1c-0.6,0.2-1,0.4-1.3,0.9c-0.4,0.5-0.7,1.5-1,3l-0.2,1.1c-0.2,0.8-0.2,1.3-0.3,1.3c0,0.7,0.1,1,0.5,1.1
			c0.2,0,0.3,0.1,0.4,0.1l0.3,0.1c0.6,0.1,0.8,0.4,0.7,0.8c-0.1,0.5-0.5,0.6-1.1,0.5c-0.1,0-0.4-0.1-0.7-0.2
			c-0.3-0.1-0.5-0.1-0.7-0.2c-0.1,0-0.3,0-0.6-0.1c-0.3,0-0.5,0-0.6-0.1c-0.5-0.1-0.7-0.4-0.6-0.8c0-0.2,0.1-0.3,0.1-0.4
			c0.2-0.5,0.4-1.3,0.6-2.3l0.6-3.2c0.2-0.8,0.2-1.3,0.2-1.4c0.1-0.7-0.1-1.2-0.5-1.2c-0.1,0-0.3,0-0.5,0c-0.2,0-0.4,0-0.5,0
			c-0.6-0.1-0.8-0.4-0.7-0.8c0.1-0.5,0.5-0.6,1.2-0.5c0.1,0,0.4,0.1,0.6,0.2c0.4,0.1,0.7,0.2,0.8,0.2c0,0,0.2,0,0.5,0.1
			c0.2,0,0.4,0,0.5,0C132.5,296.1,132.7,296.3,132.6,296.7z"/>
		<path fill="#373679" d="M121.5,303.6l0.2-0.6c-1.1,0.7-2.4,0.9-3.8,0.5c-1.1-0.3-2-0.9-2.5-1.6c-0.5-0.7-0.7-1.5-0.4-2.4
			c0.2-0.6,0.5-1,1-1.3c0.5-0.3,1-0.3,1.6-0.1c0.4,0.1,0.7,0.3,0.9,0.6c0.2,0.3,0.3,0.5,0.2,0.8c-0.1,0.2-0.2,0.4-0.5,0.5
			c-0.2,0.1-0.5,0.1-0.8,0.1c0,0-0.1-0.1-0.3-0.2c-0.1,0.1-0.2,0.3-0.3,0.4c-0.1,0.4,0,0.8,0.3,1.2c0.3,0.4,0.8,0.7,1.4,0.9
			c1.3,0.4,2.2,0.1,2.9-0.7c0.4-0.5,0.8-1.3,1.2-2.5l0.4-1.3c0.3-0.9,0.4-1.4,0.4-1.5c0.1-0.8,0-1.2-0.4-1.4
			c-0.2-0.1-0.4-0.1-0.7-0.1c-0.2,0-0.3,0-0.5-0.1c-0.5-0.2-0.7-0.4-0.6-0.9c0.1-0.5,0.5-0.6,1.2-0.4l0.1,0c0.2,0.1,0.6,0.2,1.1,0.4
			c0.5,0.2,0.8,0.3,1.1,0.4c0.6,0.2,1.2,0.3,1.5,0.4l1.4,0.3c0.7,0.2,0.9,0.5,0.8,1c-0.1,0.4-0.5,0.5-1.1,0.4
			c-0.2,0-0.3-0.1-0.4-0.1l-0.3-0.2c-0.2-0.1-0.3-0.1-0.3-0.1c-0.4-0.1-0.7,0.1-0.9,0.7l-0.3,1l-1.3,4.6c-0.2,0.8-0.1,1.3,0.4,1.4
			c0.1,0,0.3,0.1,0.5,0.1c0.2,0,0.4,0.1,0.5,0.1c0.5,0.2,0.7,0.5,0.6,0.9c-0.1,0.5-0.6,0.6-1.2,0.4c-0.2,0-0.4-0.1-0.7-0.3
			c-0.3-0.1-0.5-0.2-0.7-0.3c-0.1,0-0.3-0.1-0.6-0.1c-0.1,0-0.3,0-0.5-0.1C121.5,304.2,121.4,304,121.5,303.6z"/>
		<path fill="#373679" d="M108.9,299.4l0.2-0.5c-1.2,0.6-2.5,0.7-3.8,0.1c-1.1-0.4-1.9-1-2.3-1.8c-0.5-0.8-0.6-1.6-0.2-2.4
			c0.2-0.6,0.6-1,1.1-1.2c0.5-0.2,1-0.2,1.6,0c0.4,0.1,0.6,0.4,0.8,0.6c0.2,0.3,0.2,0.6,0.1,0.8c-0.1,0.2-0.3,0.4-0.5,0.4
			c-0.3,0.1-0.5,0.1-0.8,0c0,0-0.1-0.1-0.3-0.2c-0.2,0.1-0.3,0.2-0.3,0.4c-0.1,0.4-0.1,0.8,0.2,1.2c0.3,0.4,0.7,0.7,1.3,1
			c1.2,0.5,2.2,0.4,3-0.4c0.5-0.5,0.9-1.3,1.4-2.4l0.5-1.3c0.3-0.9,0.5-1.4,0.6-1.5c0.2-0.8,0.1-1.2-0.3-1.4
			c-0.2-0.1-0.4-0.1-0.7-0.2c-0.2,0-0.3-0.1-0.5-0.1c-0.5-0.2-0.7-0.5-0.5-0.9c0.2-0.4,0.6-0.5,1.2-0.3l0.1,0c0.2,0.1,0.6,0.3,1,0.5
			c0.5,0.2,0.8,0.4,1,0.5c0.6,0.2,1.1,0.4,1.5,0.5l1.3,0.4c0.6,0.3,0.9,0.6,0.7,1.1c-0.2,0.4-0.5,0.5-1.1,0.2
			c-0.2-0.1-0.3-0.1-0.3-0.2l-0.3-0.2c-0.1-0.1-0.3-0.1-0.3-0.2c-0.4-0.2-0.7,0.1-1,0.6l-0.4,1l-1.7,4.5c-0.3,0.8-0.2,1.3,0.2,1.4
			c0.1,0,0.3,0.1,0.5,0.1c0.2,0,0.4,0.1,0.5,0.1c0.5,0.2,0.7,0.5,0.5,0.9c-0.2,0.5-0.6,0.6-1.3,0.3c-0.2-0.1-0.4-0.2-0.7-0.3
			c-0.3-0.2-0.5-0.3-0.7-0.3c-0.1,0-0.3-0.1-0.6-0.2c-0.1,0-0.3-0.1-0.5-0.1C108.9,300,108.7,299.7,108.9,299.4z"/>
		<path fill="#373679" d="M97.3,296.2c0.3,0.2,0.6,0.4,0.7,0.7c0.1,0.3,0.2,0.6,0,0.9s-0.4,0.5-0.7,0.6c-0.3,0.1-0.7,0-1-0.1
			c-0.3-0.2-0.6-0.4-0.7-0.7s-0.2-0.6,0-0.9c0.1-0.3,0.4-0.5,0.7-0.6C96.6,296,97,296,97.3,296.2z M98.6,290.7l1.2-2.5
			c0.3-0.6,0.5-1,0.5-1.1c0.2-0.6,0.1-1-0.2-1.1c-0.1,0-0.3-0.1-0.6-0.2c-0.1,0-0.2-0.1-0.4-0.1c-0.6-0.3-0.8-0.6-0.6-1
			c0.1-0.2,0.3-0.3,0.5-0.3s0.5,0,0.8,0.2c0.2,0.1,0.6,0.3,1.1,0.6c0.5,0.3,0.8,0.5,1.1,0.6c0.4,0.2,0.8,0.4,1.4,0.6
			c0.6,0.2,1,0.4,1.2,0.5c0.6,0.3,0.8,0.7,0.6,1.1c-0.2,0.4-0.6,0.5-1.1,0.2c-0.1-0.1-0.3-0.2-0.5-0.3s-0.4-0.3-0.5-0.3
			c-0.4-0.2-0.8,0.1-1.2,0.9c0,0.1-0.3,0.6-0.8,1.6l-0.8,1.6c-0.5,1-0.8,1.6-0.8,1.6c-0.3,0.8-0.3,1.3,0.1,1.5
			c0.1,0.1,0.3,0.1,0.5,0.2c0.2,0.1,0.4,0.1,0.5,0.2c0.5,0.3,0.7,0.6,0.5,1c-0.2,0.4-0.6,0.5-1.3,0.2c-0.3-0.1-0.5-0.2-0.6-0.3
			c-0.5-0.3-0.8-0.5-0.9-0.5c-0.1-0.1-0.3-0.1-0.6-0.2c-0.3-0.1-0.5-0.2-0.6-0.2c-0.4-0.2-0.5-0.6-0.3-1.1c0-0.1,0.1-0.1,0.1-0.2
			c0.1-0.1,0.1-0.2,0.1-0.2c0.1-0.1,0.3-0.5,0.6-1.2C98,291.7,98.3,291.2,98.6,290.7z"/>
		<path fill="#373679" d="M90.6,282.7l-0.7,1.2c-0.3,0.5-0.7,0.6-1.2,0.3s-0.6-0.7-0.3-1.3c0.8-1.3,1.5-2.1,2.2-2.4
			c1-0.4,2.1-0.2,3.3,0.5c1.2,0.7,1.8,1.4,2,2.3c0.1,0.7-0.1,1.5-0.8,2.6l-2.5,4.4c-0.1,0.3-0.1,0.5,0.2,0.6l0.7,0.4
			c0.2,0.1,0.4,0.3,0.5,0.5c0.1,0.2,0.1,0.4,0,0.6c-0.1,0.2-0.3,0.3-0.5,0.3c-0.2,0-0.4,0-0.6-0.1l-0.9-0.5
			c-0.2-0.1-0.4-0.1-0.6,0.1l-1.1,1.9c-0.3,0.5-0.7,0.5-1.2,0.2c-0.5-0.3-0.7-0.7-0.4-1.1l1.1-2c0.1-0.2,0-0.3-0.2-0.5l-2.4-1.4
			c-0.6-0.3-0.7-0.7-0.5-1.1c0.3-0.5,0.7-0.5,1.3-0.2l2.4,1.4c0.2,0.1,0.4,0,0.5-0.2l2.6-4.5c0.7-1.3,0.6-2.2-0.4-2.8
			C92,281.5,91.2,281.7,90.6,282.7z"/>
		<path fill="#373679" d="M85,275.3c1.5,1,2.3,2.2,2.6,3.7c0.3,1.4,0,2.9-1,4.3c-1,1.4-2.2,2.2-3.6,2.5c-1.5,0.2-2.9-0.2-4.4-1.2
			c-1.5-1-2.4-2.3-2.7-3.7c-0.3-1.4,0-2.8,1-4.2c1-1.4,2.2-2.2,3.7-2.5C82,273.8,83.5,274.2,85,275.3z M79.3,283.3
			c1,0.7,1.9,0.9,2.9,0.7c0.9-0.2,1.8-0.8,2.6-1.8l0.2-0.2c0.7-1.1,1.1-2.1,0.9-3.1c-0.1-1-0.7-1.8-1.7-2.5c-1-0.7-2-0.9-3-0.7
			c-1,0.2-1.9,0.9-2.6,2C77,280,77.2,281.9,79.3,283.3z"/>
		<path fill="#373679" d="M67.5,276.1c-0.9-0.7-1.4-1.5-1.7-2.4l-0.1,0.1c-0.3,0.4-0.7,0.4-1.1,0.1c-0.4-0.4-0.5-0.7-0.2-1
			c0.1-0.1,0.2-0.2,0.4-0.5c0.2-0.2,0.4-0.4,0.6-0.6c0.1-0.1,0.2-0.3,0.4-0.6c0.2-0.3,0.3-0.5,0.4-0.6c0.3-0.4,0.7-0.4,1.1-0.1
			c0.4,0.3,0.5,0.7,0.2,1l-0.4,0.5c-0.3,0.3-0.3,0.8,0,1.4c0.2,0.6,0.6,1.1,1.2,1.6c0.6,0.5,1.2,0.8,1.8,0.9
			c0.6,0.1,1.1-0.1,1.4-0.4c0.6-0.7,0.3-1.6-0.7-2.6l-1-1.1c-2-2.1-2.4-3.7-1.4-5c0.6-0.8,1.5-1.1,2.6-1c1.1,0.1,2.2,0.6,3.4,1.6
			c1.1,0.9,1.8,1.9,2.1,3.1c0.1-0.1,0.2-0.2,0.3-0.3c0.3-0.4,0.7-0.4,1.1,0c0.5,0.4,0.5,0.8,0.2,1.3c0.1-0.1-0.2,0.2-0.8,0.7
			c-0.2,0.1-0.3,0.3-0.4,0.4c-0.2,0.3-0.4,0.5-0.5,0.8c-0.1,0.3-0.3,0.5-0.4,0.6c-0.3,0.4-0.7,0.4-1.1,0c-0.3-0.2-0.4-0.4-0.4-0.6
			c0-0.2,0.2-0.5,0.6-1c0.4-0.5,0.4-1.1,0.1-1.9c-0.3-0.8-0.9-1.5-1.8-2.2c-0.6-0.5-1.3-0.8-1.9-0.9c-0.6-0.1-1.1,0.1-1.5,0.5
			c-0.6,0.7-0.3,1.7,1,3c1.2,1.2,2.1,2.3,2.5,3.2c0.4,0.9,0.3,1.7-0.3,2.5c-0.6,0.8-1.5,1.1-2.6,1C69.7,277.5,68.6,277,67.5,276.1z"
			/>
		<path fill="#373679" d="M55.8,257.9c0.3,0.4,0.5,0.7,0.5,1.2c0,0.4-0.1,0.8-0.4,1.1c-0.3,0.3-0.7,0.4-1.1,0.3
			c-0.4-0.1-0.8-0.3-1.1-0.6c-0.3-0.4-0.5-0.8-0.5-1.2c0-0.4,0.1-0.8,0.4-1.1c0.3-0.3,0.7-0.4,1.1-0.3
			C55.1,257.4,55.5,257.6,55.8,257.9z"/>
		<path fill="#373679" d="M38.1,237c0.4,0.3,0.9,0.7,1.4,1.3c-0.4-0.9-0.5-1.6-0.3-2.2c0.2-0.6,0.7-1.1,1.6-1.7l0.8-0.5
			c0,0,0.1-0.1,0.2-0.1c0.8-0.5,1.1-1.1,0.7-1.8c-0.4-0.7-1.1-0.7-2.1,0l-0.5,0.3l-0.4,0.3l-0.2,0.2c-0.3,0.2-0.6,0.3-0.8,0.4
			c-0.3,0-0.5-0.1-0.7-0.5c-0.3-0.5-0.2-0.9,0.3-1.2c0,0,0.1-0.1,0.4-0.2l0.4-0.2c0.2-0.2,0.4-0.3,0.5-0.3l0.4-0.3
			c0.1,0,0.2-0.1,0.3-0.2c0.7-0.4,1.4-0.5,2-0.3c0.7,0.2,1.3,0.7,1.8,1.6c1.1,1.7,0.9,3-0.5,3.9l-0.5,0.3l-0.6,0.4l-0.4,0.2
			c-0.8,0.5-1.2,1-1.2,1.5s0.3,1.3,1,2.5l1.3,2c0.3,0.5,0.7,0.5,1.1,0.2l1.4-0.9c0.9-0.6,1.4-0.9,1.5-1c0.5-0.5,0.6-1,0.2-1.6
			c-0.1-0.2-0.2-0.3-0.3-0.4c-0.2-0.2-0.3-0.4-0.4-0.5c-0.3-0.5-0.2-0.8,0.2-1.1c0.4-0.3,0.8-0.1,1.2,0.5l0.2,0.3l0.6,1.2
			c0.2,0.5,0.5,0.9,0.7,1.2c0.3,0.4,0.6,0.9,1,1.4l0.8,1c0.2,0.2,0.2,0.3,0.2,0.3c0.4,0.6,0.4,1-0.1,1.3c-0.4,0.2-0.7,0.1-1-0.3
			c0-0.1-0.2-0.3-0.3-0.6c-0.1-0.2-0.1-0.3-0.2-0.5c-0.5-0.7-1.1-0.8-2-0.2l-7.1,4.5c-0.9,0.6-1.1,1.2-0.6,1.9
			c0.1,0.1,0.2,0.3,0.4,0.5c0.2,0.2,0.3,0.4,0.4,0.5c0.1,0.2,0.2,0.4,0.1,0.6c0,0.2-0.1,0.3-0.3,0.4c-0.4,0.3-0.8,0.1-1.2-0.5
			c0-0.1-0.1-0.2-0.2-0.3l-0.6-1.1c-0.2-0.3-0.4-0.7-0.6-1.1c-0.3-0.4-0.6-0.9-1-1.4l-1.1-1.6c-0.4-0.5-0.7-1-1-1.5
			c-2-3.1-2-5.3,0-6.6C35.9,236.2,37,236.2,38.1,237z M41.7,243l-1.3-2c-0.8-1.2-1.5-2-2.1-2.4c-0.8-0.5-1.6-0.5-2.4,0
			c-1.3,0.9-1.3,2.4,0.1,4.6c0.8,1.2,1.3,1.9,1.8,2.3c0.4,0.3,0.8,0.4,1.3,0.1l0.6-0.4l2-1.3c0.2-0.1,0.3-0.3,0.3-0.4
			S41.9,243.2,41.7,243z"/>
		<path fill="#373679" d="M39.6,222.5c0.8,1.6,0.9,3.1,0.5,4.5c-0.5,1.4-1.5,2.5-3,3.2c-1.5,0.7-3,0.9-4.4,0.3
			c-1.4-0.5-2.5-1.6-3.2-3.2c-0.8-1.6-1-3.2-0.5-4.5c0.4-1.4,1.4-2.5,3-3.2c1.5-0.7,3-0.9,4.4-0.3C37.7,219.8,38.8,220.8,39.6,222.5
			z M30.6,226.6c0.5,1.1,1.2,1.7,2.1,2c0.9,0.3,1.9,0.2,3.1-0.3l0.2-0.1c1.2-0.6,2-1.3,2.4-2.2c0.4-0.9,0.3-1.9-0.2-3
			c-0.5-1.1-1.3-1.8-2.3-2.1s-2.1-0.2-3.3,0.4C30.2,222.6,29.5,224.4,30.6,226.6z"/>
		<path fill="#373679" d="M30.8,210.2l-1.3,0.5c-0.5,0.2-0.9,0-1.1-0.5c-0.2-0.5,0-0.9,0.6-1.2c1.4-0.5,2.5-0.7,3.2-0.5
			c1,0.3,1.7,1.1,2.3,2.5c0.5,1.2,0.5,2.3,0,3c-0.3,0.6-1.1,1.1-2.3,1.5l-4.7,1.8c-0.3,0.1-0.4,0.3-0.2,0.6l0.3,0.8
			c0.1,0.3,0.1,0.5,0,0.7s-0.2,0.4-0.4,0.4c-0.2,0.1-0.4,0-0.6-0.1c-0.2-0.1-0.3-0.3-0.4-0.5l-0.3-0.9c-0.1-0.3-0.3-0.4-0.5-0.3
			l-2,0.8c-0.5,0.2-0.9,0-1.1-0.6c-0.2-0.6-0.1-0.9,0.4-1.1l2.1-0.8c0.2-0.1,0.2-0.3,0.1-0.5l-1-2.6c-0.2-0.6-0.1-1,0.3-1.2
			c0.5-0.2,0.9,0,1.1,0.7l1,2.6c0.1,0.2,0.3,0.3,0.5,0.2l4.8-1.8c1.4-0.5,1.9-1.3,1.4-2.4C32.7,210.2,32,209.8,30.8,210.2z"/>
		<path fill="#373679" d="M23.5,197.3c0.5-0.1,0.8-0.2,1-0.1c0.1,0,0.3,0.3,0.4,0.7l2.2,7.7c0.1,0.2,0.1,0.3,0.2,0.4s0.2,0.1,0.3,0
			c1-0.3,1.7-0.9,2.2-1.8c0.5-0.9,0.5-1.9,0.2-3c-0.2-0.7-0.6-1.3-1-1.8s-1-0.8-1.6-0.8l-0.6,0c-0.4,0-0.6-0.2-0.7-0.7
			c-0.2-0.6,0-1,0.5-1.1c0.9-0.3,1.8,0.1,2.8,0.9c1,0.9,1.7,2,2.1,3.3c0.5,1.7,0.4,3.2-0.3,4.5c-0.7,1.3-1.8,2.1-3.4,2.6
			c-1.6,0.5-3.1,0.3-4.5-0.4c-1.3-0.8-2.2-2-2.7-3.7c-0.4-1.5-0.4-2.9,0.2-4.1S22.2,197.6,23.5,197.3z M25.5,206.2
			c0.2-0.1,0.2-0.3,0.1-0.6l-1.7-5.8c-0.1-0.3-0.2-0.5-0.4-0.4c-0.7,0.2-1.2,0.7-1.6,1.5c-0.3,0.8-0.4,1.6-0.1,2.5
			c0.3,0.9,0.8,1.6,1.5,2.2C24.1,206.2,24.8,206.4,25.5,206.2z"/>
		<path fill="#373679" d="M20.9,184c0.5-0.1,0.9-0.1,1-0.1c0.1,0.1,0.2,0.3,0.3,0.7l1.5,7.9c0,0.2,0.1,0.4,0.2,0.4s0.1,0.1,0.3,0.1
			c1-0.2,1.8-0.7,2.4-1.6c0.6-0.9,0.7-1.9,0.5-3c-0.1-0.7-0.4-1.4-0.9-1.9c-0.4-0.5-0.9-0.9-1.5-0.9l-0.6-0.1
			c-0.4-0.1-0.6-0.3-0.6-0.7c-0.1-0.6,0.1-1,0.6-1.1c0.9-0.2,1.8,0.2,2.7,1.2c0.9,1,1.5,2.1,1.7,3.5c0.3,1.7,0.1,3.2-0.7,4.4
			c-0.8,1.2-2,2-3.6,2.3c-1.7,0.3-3.1,0-4.4-0.9c-1.2-0.9-2-2.2-2.4-4c-0.3-1.6-0.1-2.9,0.6-4.1C18.6,184.9,19.6,184.2,20.9,184z
			 M22,193.1c0.2,0,0.3-0.2,0.2-0.6l-1.1-5.9c-0.1-0.3-0.2-0.5-0.4-0.5c-0.7,0.1-1.3,0.6-1.7,1.3c-0.4,0.8-0.5,1.6-0.4,2.5
			c0.2,0.9,0.6,1.7,1.3,2.4C20.6,192.9,21.3,193.2,22,193.1z"/>
		<path fill="#373679" d="M19.9,168.4c0,0.5-0.1,0.9-0.4,1.2c-0.3,0.3-0.6,0.5-1,0.5c-0.4,0-0.7-0.1-1-0.5c-0.3-0.3-0.5-0.7-0.5-1.2
			c0-0.5,0.1-0.9,0.4-1.2s0.6-0.5,1-0.5c0.4,0,0.7,0.1,1,0.5C19.7,167.5,19.8,168,19.9,168.4z"/>
	</g>
</g> 
<circle fill="none" stroke="#373679" stroke-width="1.7361" stroke-miterlimit="10" cx="163.1" cy="163.1" r="116.8"/>
<g>
	<defs>
		<circle id="SVGID_1_" cx="163.1" cy="163.1" r="99.9"/>
	</defs>
	<clipPath id="SVGID_2_">
		<use xlink:href="#SVGID_1_"  overflow="visible"/>
	</clipPath>
	<g clip-path="url(#SVGID_2_)">
		
			<line fill="#FFFFFF" stroke="#373679" stroke-width="5.2583" stroke-miterlimit="10" x1="-6.7" y1="183.4" x2="165.8" y2="182.2"/>
		<line fill="#FFFFFF" stroke="#373679" stroke-width="4.8599" stroke-miterlimit="10" x1="8.5" y1="167.1" x2="165.3" y2="182.1"/>
		
			<line fill="#FFFFFF" stroke="#373679" stroke-width="4.4616" stroke-miterlimit="10" x1="23.8" y1="150.8" x2="164.8" y2="182.1"/>
		<line fill="#FFFFFF" stroke="#373679" stroke-width="4.0632" stroke-miterlimit="10" x1="39" y1="134.5" x2="164.3" y2="182"/>
		
			<line fill="#FFFFFF" stroke="#373679" stroke-width="3.6649" stroke-miterlimit="10" x1="54.2" y1="118.2" x2="163.8" y2="181.9"/>
		
			<line fill="#FFFFFF" stroke="#373679" stroke-width="3.2665" stroke-miterlimit="10" x1="69.4" y1="101.9" x2="163.2" y2="181.8"/>
		<line fill="#FFFFFF" stroke="#373679" stroke-width="2.8682" stroke-miterlimit="10" x1="84.7" y1="85.6" x2="162.7" y2="181.7"/>
		<line fill="#FFFFFF" stroke="#373679" stroke-width="2.4698" stroke-miterlimit="10" x1="99.9" y1="69.3" x2="162.2" y2="181.7"/>
		<line fill="#FFFFFF" stroke="#373679" stroke-width="2.0714" stroke-miterlimit="10" x1="115.1" y1="53" x2="161.7" y2="181.6"/>
		
			<line fill="#FFFFFF" stroke="#373679" stroke-width="1.6731" stroke-miterlimit="10" x1="130.4" y1="36.7" x2="161.2" y2="181.5"/>
		
			<line fill="#FFFFFF" stroke="#373679" stroke-width="1.2747" stroke-miterlimit="10" x1="145.6" y1="20.4" x2="160.6" y2="181.4"/>
		<line fill="#FFFFFF" stroke="#373679" stroke-width="0.8764" stroke-miterlimit="10" x1="160.8" y1="4.1" x2="160.1" y2="181.4"/>
	</g>
	<g clip-path="url(#SVGID_2_)">
		
			<line fill="#FFFFFF" stroke="#373679" stroke-width="5.2583" stroke-miterlimit="10" x1="348.2" y1="182.5" x2="157.6" y2="182.2"/>
		
			<line fill="#FFFFFF" stroke="#373679" stroke-width="4.8875" stroke-miterlimit="10" x1="331.2" y1="166.8" x2="157.9" y2="182.1"/>
		
			<line fill="#FFFFFF" stroke="#373679" stroke-width="4.5168" stroke-miterlimit="10" x1="314.2" y1="151.2" x2="158.1" y2="182.1"/>
		<line fill="#FFFFFF" stroke="#373679" stroke-width="4.1461" stroke-miterlimit="10" x1="297.1" y1="135.5" x2="158.4" y2="182"/>
		
			<line fill="#FFFFFF" stroke="#373679" stroke-width="3.7753" stroke-miterlimit="10" x1="280.1" y1="119.9" x2="158.7" y2="181.9"/>
		<line fill="#FFFFFF" stroke="#373679" stroke-width="3.4046" stroke-miterlimit="10" x1="263" y1="104.2" x2="159" y2="181.8"/>
		<line fill="#FFFFFF" stroke="#373679" stroke-width="3.0338" stroke-miterlimit="10" x1="246" y1="88.5" x2="159.3" y2="181.7"/>
		<line fill="#FFFFFF" stroke="#373679" stroke-width="2.6631" stroke-miterlimit="10" x1="229" y1="72.9" x2="159.5" y2="181.7"/>
		
			<line fill="#FFFFFF" stroke="#373679" stroke-width="2.2923" stroke-miterlimit="10" x1="211.9" y1="57.2" x2="159.8" y2="181.6"/>
		
			<line fill="#FFFFFF" stroke="#373679" stroke-width="1.9216" stroke-miterlimit="10" x1="194.9" y1="41.5" x2="160.1" y2="181.5"/>
		
			<line fill="#FFFFFF" stroke="#373679" stroke-width="1.5509" stroke-miterlimit="10" x1="177.8" y1="25.9" x2="160.4" y2="181.4"/>
		
			<line fill="#FFFFFF" stroke="#373679" stroke-width="1.1801" stroke-miterlimit="10" x1="160.8" y1="10.2" x2="160.7" y2="181.4"/>
	</g>
</g>
<g>
	<path fill="#373679" d="M89.7,208c-0.4,0.8-1.8,2.5-4.8,2.5c-0.5,0-1.8,0-3-0.8c-0.3-0.2-0.5-0.4-0.7-0.6l0,1.1h-3.5v-14.4h3.7v4.7
		c0.4-0.3,0.4-0.4,0.7-0.5c0.5-0.3,1.4-0.8,3-0.8c0.7,0,2.1,0.1,3.4,1.1c1,0.7,2,1.9,2,4.4C90.5,206.3,90.1,207.4,89.7,208z
		 M86.6,203.3c-0.1-0.5-0.6-1.9-2.5-1.8c-1.5,0.1-2.8,0.9-2.8,3.3c0,0.1,0,1.5,0.6,2.3c0.1,0.2,0.3,0.4,0.7,0.7
		c0.6,0.3,1.2,0.4,1.5,0.4c1.2,0,1.8-0.6,2-0.9c0.7-0.8,0.7-2.4,0.7-2.5C86.8,204.5,86.8,204,86.6,203.3z"/>
	<path fill="#373679" d="M98.1,202.4c-0.1,0-0.7,0.1-1.2,0.2c-1,0.3-1.2,0.8-1.2,1.6v6H92v-10.7h3.6v1.1c0.3-0.2,0.7-0.5,1.5-0.8
		c1-0.3,1.7-0.4,2.2-0.4v2.8L98.1,202.4z"/>
	<path fill="#373679" d="M107.8,210.2v-1c-0.3,0.2-0.5,0.3-0.8,0.5c-0.5,0.3-1.5,0.8-3.1,0.8c-2.3,0-3.4-1-3.8-1.8
		c-0.3-0.4-0.4-1-0.4-1.5c0-1.9,2.1-2.8,2.6-3c1-0.3,2.7-0.6,5.1-1v-0.6c0-0.4-0.1-1.3-1.4-1.3c-1.1,0-1.6,0.4-1.8,0.8
		c0,0.1-0.1,0.2-0.2,0.5h-3.8c0-0.4,0.1-1.3,1-2.1c1.1-0.9,2.4-1,2.9-1.1c0.7-0.1,1.3-0.1,1.6-0.1c1.8,0,4.2,0.3,5.1,1.9
		c0.1,0.3,0.3,0.6,0.3,1.2v6.2c0,0.9,0,1.3,0.4,1.7H107.8z M105,205.8c-0.1,0-0.3,0.1-0.4,0.1c-0.9,0.3-1.2,0.8-1.2,1.2
		c0,0.1,0,0.3,0.1,0.5c0.1,0.2,0.5,0.6,1.3,0.6c0.7,0,1.3-0.3,1.4-0.4c1.1-0.7,1.2-1.7,1.2-2.7L105,205.8z"/>
	<path fill="#373679" d="M121.2,210.2v-6c0-0.7,0-1.2-0.1-1.5c-0.2-0.4-0.6-0.9-1.7-0.9c-0.2,0-0.8,0-1.3,0.3
		c-0.6,0.4-0.7,1.1-0.7,2.3v5.8h-3.8v-10.7h3.8v0.9c0.1-0.1,0.3-0.3,0.6-0.5c0.5-0.3,1.5-0.7,3-0.7c0.3,0,1.4,0,2.3,0.4
		c1.6,0.7,1.7,1.9,1.7,3.2v7.3H121.2z"/>
	<path fill="#373679" d="M135.4,210.2l0-1c-0.2,0.2-0.4,0.4-0.7,0.6c-1.1,0.7-2.2,0.7-2.7,0.7c-0.9,0-2.9-0.2-4.3-1.9
		c-0.6-0.7-1.2-1.8-1.2-3.7c0-0.6,0-3.4,2.4-4.9c0.4-0.3,1.4-0.8,2.9-0.8c1.8,0,2.9,0.8,3.4,1.1v-4.6h3.7v14.4H135.4z M134.6,202.4
		c-0.2-0.3-0.9-0.9-2-0.8c-0.7,0.1-1.3,0.4-1.7,0.9c-0.5,0.6-0.7,1.6-0.7,2.4c0,0.2,0,1.6,0.7,2.5c0.6,0.7,1.3,0.8,1.7,0.8
		c0.4,0,1-0.1,1.3-0.4c1.3-0.9,1.2-2.6,1.2-2.9C135.2,204.6,135.3,203.3,134.6,202.4z"/>
	<path fill="#373679" d="M155,210.2v-6c0-0.7,0-1.2-0.1-1.5c-0.2-0.4-0.6-0.9-1.7-0.9c-0.2,0-0.8,0-1.3,0.3
		c-0.6,0.4-0.7,1.1-0.7,2.3v5.8h-3.8v-10.7h3.8v0.9c0.1-0.1,0.3-0.3,0.6-0.5c0.5-0.3,1.5-0.7,3-0.7c0.3,0,1.4,0,2.3,0.4
		c1.6,0.7,1.7,1.9,1.7,3.2v7.3H155z"/>
	<path fill="#373679" d="M164.1,205.6c0,0.1,0,0.3,0,0.6c0.3,1.2,1.3,2,2.9,2c0.2,0,0.7,0,1.2-0.2c1.3-0.4,1.8-1.5,2-1.7l2.8,1.2
		c-0.5,0.6-0.8,0.9-1.1,1.2c-1.9,1.7-4.3,1.9-5.3,1.9c-0.4,0-1.3,0-2.3-0.3c-2.8-0.7-4.2-2.8-4.2-5.2c0-0.7,0-2.6,1.6-4.2
		c0.8-0.7,2.1-1.7,4.9-1.7c0.9,0,3.4,0.1,5,1.9c1.4,1.7,1.4,3.9,1.4,4.4H164.1z M168,201.7c-0.5-0.2-0.9-0.2-1.2-0.2
		c-1.5,0-2.2,0.9-2.4,1.3c-0.1,0.2-0.2,0.4-0.3,0.8h5.2C169.3,203.2,169.2,202.2,168,201.7z"/>
	<path fill="#373679" d="M188.3,210.2h-4.1l-1.9-7.1l-1.9,7.1h-4.1l-3.5-10.7h4l1.8,7.5l1.9-7.5h4l1.8,7.5l2-7.5h3.9L188.3,210.2z"
		/>
	<path fill="#373679" d="M208.9,208.6c-1.1,1.4-3.5,2-5.4,2c-0.7,0-2.8-0.1-4.7-1.1c-0.8-0.4-1.3-0.8-1.5-1l2.4-1.8
		c0.2,0.2,0.4,0.4,0.7,0.5c0.8,0.6,2,1,3,1c0.2,0,0.5,0,0.9-0.1c0.6-0.1,1.3-0.4,1.3-1c0-0.7-1.2-0.8-2.5-1
		c-2.7-0.4-3.9-0.9-4.6-1.9c-0.3-0.6-0.4-1.1-0.4-1.3c0-0.3,0.1-0.9,0.5-1.6c0.6-0.9,2-2,4.9-2c0.8,0,2.7,0.1,4.6,1
		c0.4,0.2,0.7,0.4,1.1,0.6l-2.3,1.8c-0.2-0.1-0.4-0.3-0.7-0.4c-0.7-0.3-1.7-0.7-2.5-0.7c-0.5,0-1,0.1-1.2,0.2
		c-0.5,0.2-0.6,0.5-0.6,0.6c0,0.2,0.1,0.4,0.3,0.5c0.4,0.2,1.3,0.3,1.7,0.4l1.7,0.3c2,0.4,3.8,1.2,3.8,3.2
		C209.5,207.7,209.1,208.3,208.9,208.6z"/>
	<path fill="#373679" d="M215,201.8v4.8c0,0.4,0,0.7,0.1,0.9c0.2,0.3,0.8,0.3,0.9,0.3c0.4,0,0.9,0,1.3,0v2.4c-0.2,0-1.1,0.2-2,0.2
		c-0.3,0-0.5,0-0.8,0c-0.3,0-1.5,0-2.3-0.7c-1-0.7-0.9-1.8-0.9-2.8v-5.1h-1.9v-1.9h1.9v-3.3h3.7v3.4h2.5v1.9H215z"/>
	<path fill="#373679" d="M224.6,211.1c-0.3,0.8-0.6,1.4-1.2,2c-0.8,0.7-1.5,0.8-2.7,0.8h-2.7v-2.5h1.7c0.9,0,1.2-0.4,1.2-0.8
		c0-0.3-0.1-0.5-0.3-1c-0.1-0.3-0.2-0.7-0.4-1l-3.4-9h4l2.1,7.6l2.1-7.6h4L224.6,211.1z"/>
	<path fill="#373679" d="M229.8,210.2v-14.4h3.7v14.4H229.8z"/>
	<path fill="#373679" d="M238.9,205.6c0,0.1,0,0.3,0,0.6c0.3,1.2,1.3,2,2.9,2c0.2,0,0.7,0,1.2-0.2c1.3-0.4,1.8-1.5,2-1.7l2.8,1.2
		c-0.5,0.6-0.8,0.9-1.1,1.2c-1.9,1.7-4.3,1.9-5.3,1.9c-0.4,0-1.3,0-2.3-0.3c-2.8-0.7-4.2-2.8-4.2-5.2c0-0.7,0-2.6,1.6-4.2
		c0.8-0.7,2.1-1.7,4.9-1.7c0.9,0,3.4,0.1,5,1.9c1.4,1.7,1.4,3.9,1.4,4.4H238.9z M242.7,201.7c-0.5-0.2-0.9-0.2-1.2-0.2
		c-1.5,0-2.2,0.9-2.4,1.3c-0.1,0.2-0.2,0.4-0.3,0.8h5.2C244.1,203.2,244,202.2,242.7,201.7z"/>
</g>
<g>
	<g>
		<path fill="#373679" d="M182.8,237.2h-3.4c-0.6,0-1.1,0.5-1.2,1.1c-0.1-0.4-0.2-0.7-0.3-1.1l-2.1-6.9c0.4-0.3,0.7-0.7,0.7-1.2
			c0-0.8-0.7-1.5-1.5-1.5h-0.2c-0.8-1.9-6.2-3.4-12.8-3.4c-6.6,0-12,1.5-12.8,3.4h-0.2c-0.8,0-1.5,0.7-1.5,1.5c0,0.5,0.3,1,0.7,1.2
			l-2.1,6.9c-0.1,0.4-0.2,0.7-0.3,1.1c0-0.6-0.5-1.1-1.2-1.1h-3.4c-0.7,0-1.2,0.5-1.2,1.2v1.4c0,0.7,0.5,1.2,1.2,1.2h2l1.5,1.7
			c0.5,0.1,0.9,0.1,1.4,0.2c11.4,2.3,15,11.1,15.9,13.9c0.9-2.9,4.7-12.1,16.9-14.1c0.1,0,0.2,0,0.3,0l1.5-1.7h2
			c0.7,0,1.2-0.5,1.2-1.2v-1.4C184,237.7,183.4,237.2,182.8,237.2z M174.6,242.3c-0.3,0.4-0.8,0.6-1.3,0.6h-7.4H165h-14.2
			c-0.5,0-1-0.2-1.3-0.6c-0.3-0.4-0.4-0.9-0.4-1.4l1.5-8.1c0.1-0.8,0.8-1.3,1.6-1.3H165h0.8h5.9c0.8,0,1.5,0.6,1.6,1.3l1.5,8.1
			C175,241.5,174.9,242,174.6,242.3z"/>
		<path fill="#373679" d="M174.6,242.3"/>
		<path fill="#373679" d="M179,248.1c0.1-1.3,0.1-2.6,0.1-3.9c-11.7,2-15,11-15.6,13.3H178L179,248.1z M173.1,254.6
			c-1.4,0-2.5-1.1-2.5-2.5c0-1.4,1.1-2.5,2.5-2.5s2.5,1.1,2.5,2.5C175.6,253.5,174.5,254.6,173.1,254.6L173.1,254.6z M176.6,248.9
			c-0.5,0-1-0.4-1-1c0-0.5,0.4-1,1-1c0.5,0,1,0.4,1,1C177.5,248.5,177.1,248.9,176.6,248.9L176.6,248.9z M176.6,248.9"/>
		<path fill="#373679" d="M160.7,257.4c-0.6-2.3-3.8-11.3-15.7-13.3c-0.1,1.3,0,2.6,0.1,3.9l0.9,9.4H160.7z M151,249.6
			c1.4,0,2.5,1.1,2.5,2.5c0,1.4-1.1,2.5-2.5,2.5c-1.4,0-2.5-1.1-2.5-2.5C148.5,250.7,149.6,249.6,151,249.6L151,249.6z M147.5,247
			c0.5,0,1,0.4,1,1c0,0.5-0.4,1-1,1c-0.5,0-1-0.4-1-1C146.6,247.4,147,247,147.5,247L147.5,247z M147.5,247"/>
		<path fill="#373679" d="M178,259h-31.9c-0.8,0-1.5,0.7-1.5,1.5s0.7,1.5,1.5,1.5h2.9v3.8c0,0.9,0.7,1.7,1.7,1.7h3.6
			c0.9,0,1.7-0.7,1.7-1.7v-3.8h12.3v3.8c0,0.9,0.7,1.7,1.6,1.7h3.6c0.9,0,1.7-0.7,1.7-1.7v-3.8h2.9c0.8,0,1.5-0.7,1.5-1.5
			S178.8,259,178,259L178,259z M178,259"/>
	</g>
</g>
<g>
	<g>
		
			<path fill="#FFFFFF" stroke="#FFFFFF" stroke-width="10.493" stroke-linecap="round" stroke-linejoin="round" stroke-miterlimit="10" d="
			M142.7,110.6c-4.3,7.5-8.8,14.9-13.6,22.3c-4.7,7.4-9.8,14.8-15.2,22.1c-5.4,7.4-11.3,14.8-17.7,22.4c-1,1.2-2.3,2.2-3.9,2.9
			c-1.5,0.8-3.1,1.4-4.6,1.8c-2.7,0.5-4.8,0.5-6.4,0.2c-1.6-0.3-2.8-1-3.7-2c-0.9-1-1.4-2.3-1.7-3.8c-0.3-1.6-0.5-3.4-0.5-5.5
			c-0.2-5.7-0.1-11.7,0.3-18c0.5-6.2,1.1-12.5,1.9-18.7c0.8-6.2,1.7-12.2,2.6-18c1-5.8,1.8-11.1,2.5-15.9l16.2-2.8
			c-1.6,10.8-3.3,21.4-4.9,31.9c-1.6,10.5-2.5,21-2.6,31.6c8.9-11.3,17-22.8,24.3-34.4c7.3-11.7,14.6-23.6,21.8-35.7l18.3-3.1
			C151.4,95.6,147.1,103.2,142.7,110.6z"/>
		
			<path fill="#FFFFFF" stroke="#FFFFFF" stroke-width="10.493" stroke-linecap="round" stroke-linejoin="round" stroke-miterlimit="10" d="
			M189.7,163.6l-15.7,2.7c-1.8,0.3-3.4,0.4-4.8,0.1c-1.4-0.2-2.7-0.6-3.9-1.1c-2.3,1.7-4.7,3-7.2,3.9c-2.5,0.9-5,1.6-7.3,2
			c-2.4,0.4-4.7,0.5-6.9,0.1c-2.2-0.3-4.2-1-6-2c-1.8-1-3.2-2.3-4.3-4.1c-1.1-1.7-1.7-3.8-1.8-6.2c-0.1-2.5,0.3-4.9,1.3-7.3
			c2.1-4.8,5-9,8.6-12.6c3.7-3.6,7.8-6.7,12.3-9.3c4.6-2.6,9.4-4.7,14.5-6.4c5.1-1.7,10.2-2.9,15.2-3.8l0.5,13.6
			c-0.6,0-1.3,0.1-1.9,0.2c-0.6,0.1-1.2,0.2-1.9,0.3c-6.1,1.1-11.9,2.9-17.3,5.5c-5.4,2.6-9.7,6-13,10.2c-1.2,1.6-2,2.8-2.2,3.8
			c-0.2,0.9-0.3,1.8-0.3,2.6c0,0.5,0.3,0.9,0.7,1.3c0.4,0.4,1,0.6,1.6,0.5c2.4-0.4,4.4-1.2,6.1-2.4c1.7-1.2,3.1-2.6,4.2-4.2
			c1.1-1.6,2-3.4,2.7-5.3c0.7-1.9,1.3-3.7,1.7-5.5l15.4,1.6l-3.2,10.1l17.3-3L189.7,163.6z"/>
		
			<path fill="#FFFFFF" stroke="#FFFFFF" stroke-width="10.493" stroke-linecap="round" stroke-linejoin="round" stroke-miterlimit="10" d="
			M255.2,152.3l-11.2,1.9c-4,0.7-7.3,0.1-9.8-1.6c-2.6-1.8-3.9-4.2-4-7.3c0-0.5,0.1-1.2,0.2-2.1l5-17.8c-1.9,1-3.8,2.1-5.8,3.5
			c-2,1.3-3.8,3-5.6,5c-1.8,2-3.4,4.2-5,6.9c-1.6,2.6-2.9,5.7-4.1,9.2l-3.2,9.9l-16.8,2.9l15.2-47.3l16.8-2.9l-1,3.1
			c1.5-1,3.3-1.9,5.4-2.9c2.1-0.9,4.1-1.5,5.8-1.8c4.8-0.8,8.4-0.3,10.7,1.7c2.3,1.9,3.5,5,3.7,9.1c0,1.2,0,2.4-0.3,3.6
			c-0.2,1.2-0.6,2.6-1.1,4.2l-3.2,10.6l12.9-2.2L255.2,152.3z"/>
	</g>
</g>
<g>
	<path fill="#373679" d="M142.7,110.6c-4.3,7.5-8.8,14.9-13.6,22.3c-4.7,7.4-9.8,14.8-15.2,22.1c-5.4,7.4-11.3,14.8-17.7,22.4
		c-1,1.2-2.3,2.2-3.9,2.9c-1.5,0.8-3.1,1.4-4.6,1.8c-2.7,0.5-4.8,0.5-6.4,0.2c-1.6-0.3-2.8-1-3.7-2c-0.9-1-1.4-2.3-1.7-3.8
		c-0.3-1.6-0.5-3.4-0.5-5.5c-0.2-5.7-0.1-11.7,0.3-18c0.5-6.2,1.1-12.5,1.9-18.7c0.8-6.2,1.7-12.2,2.6-18c1-5.8,1.8-11.1,2.5-15.9
		l16.2-2.8c-1.6,10.8-3.3,21.4-4.9,31.9c-1.6,10.5-2.5,21-2.6,31.6c8.9-11.3,17-22.8,24.3-34.4c7.3-11.7,14.6-23.6,21.8-35.7
		l18.3-3.1C151.4,95.6,147.1,103.2,142.7,110.6z"/>
	<path fill="#373679" d="M189.7,163.6l-15.7,2.7c-1.8,0.3-3.4,0.4-4.8,0.1c-1.4-0.2-2.7-0.6-3.9-1.1c-2.3,1.7-4.7,3-7.2,3.9
		c-2.5,0.9-5,1.6-7.3,2c-2.4,0.4-4.7,0.5-6.9,0.1c-2.2-0.3-4.2-1-6-2c-1.8-1-3.2-2.3-4.3-4.1c-1.1-1.7-1.7-3.8-1.8-6.2
		c-0.1-2.5,0.3-4.9,1.3-7.3c2.1-4.8,5-9,8.6-12.6c3.7-3.6,7.8-6.7,12.3-9.3c4.6-2.6,9.4-4.7,14.5-6.4c5.1-1.7,10.2-2.9,15.2-3.8
		l0.5,13.6c-0.6,0-1.3,0.1-1.9,0.2c-0.6,0.1-1.2,0.2-1.9,0.3c-6.1,1.1-11.9,2.9-17.3,5.5c-5.4,2.6-9.7,6-13,10.2
		c-1.2,1.6-2,2.8-2.2,3.8c-0.2,0.9-0.3,1.8-0.3,2.6c0,0.5,0.3,0.9,0.7,1.3c0.4,0.4,1,0.6,1.6,0.5c2.4-0.4,4.4-1.2,6.1-2.4
		c1.7-1.2,3.1-2.6,4.2-4.2c1.1-1.6,2-3.4,2.7-5.3c0.7-1.9,1.3-3.7,1.7-5.5l15.4,1.6l-3.2,10.1l17.3-3L189.7,163.6z"/>
	<path fill="#373679" d="M255.2,152.3l-11.2,1.9c-4,0.7-7.3,0.1-9.8-1.6c-2.6-1.8-3.9-4.2-4-7.3c0-0.5,0.1-1.2,0.2-2.1l5-17.8
		c-1.9,1-3.8,2.1-5.8,3.5c-2,1.3-3.8,3-5.6,5c-1.8,2-3.4,4.2-5,6.9c-1.6,2.6-2.9,5.7-4.1,9.2l-3.2,9.9l-16.8,2.9l15.2-47.3l16.8-2.9
		l-1,3.1c1.5-1,3.3-1.9,5.4-2.9c2.1-0.9,4.1-1.5,5.8-1.8c4.8-0.8,8.4-0.3,10.7,1.7c2.3,1.9,3.5,5,3.7,9.1c0,1.2,0,2.4-0.3,3.6
		c-0.2,1.2-0.6,2.6-1.1,4.2l-3.2,10.6l12.9-2.2L255.2,152.3z"/>
</g>
<g>
</g>
<g>
</g>
<g>
</g>
<g>
</g>
<g>
</g>
<g>
</g>
<g>
</g>
<g>
</g>
<g>
</g>
<g>
</g>
<g>
</g>
<g>
</g>
<g>
</g>
<g>
</g>
<g>
</g>
</svg>
</svg>
